<?xml version="1.0" encoding="UTF-8" standalone="no"?>
<!-- Created with Inkscape (http://www.inkscape.org/) -->

<svg
   xmlns:dc="http://purl.org/dc/elements/1.1/"
   xmlns:cc="http://creativecommons.org/ns#"
   xmlns:rdf="http://www.w3.org/1999/02/22-rdf-syntax-ns#"
   xmlns:svg="http://www.w3.org/2000/svg"
   xmlns="http://www.w3.org/2000/svg"
   xmlns:sodipodi="http://sodipodi.sourceforge.net/DTD/sodipodi-0.dtd"
   xmlns:inkscape="http://www.inkscape.org/namespaces/inkscape"
   width="80"
   height="400"
   id="svg2"
   version="1.1"
   inkscape:version="0.48.4 r9939"
   sodipodi:docname="icons.svg"
   inkscape:export-filename="C:\Users\andrei\Desktop\wysiwyg-canvas\css\icons.png"
   inkscape:export-xdpi="90"
   inkscape:export-ydpi="90">
  <defs
     id="defs4" />
  <sodipodi:namedview
     id="base"
     pagecolor="#ffffff"
     bordercolor="#666666"
     borderopacity="1.0"
     inkscape:pageopacity="0.0"
     inkscape:pageshadow="2"
     inkscape:zoom="5.6568548"
     inkscape:cx="35.913823"
     inkscape:cy="201.86468"
     inkscape:document-units="px"
     inkscape:current-layer="layer1"
     showgrid="false"
     inkscape:window-width="1366"
     inkscape:window-height="706"
     inkscape:window-x="-8"
     inkscape:window-y="-8"
     inkscape:window-maximized="1"
     showguides="true"
     inkscape:guide-bbox="true">
    <sodipodi:guide
       orientation="1,0"
       position="0,0"
       id="guide3492" />
    <sodipodi:guide
       orientation="1,0"
       position="20,918.53171"
       id="guide3494" />
    <sodipodi:guide
       orientation="1,0"
       position="40,908.63221"
       id="guide3496" />
    <sodipodi:guide
       orientation="1,0"
       position="60,897.3185"
       id="guide3498" />
    <sodipodi:guide
       orientation="1,0"
       position="80,888.12611"
       id="guide3500" />
    <sodipodi:guide
       orientation="0,1"
       position="144.24978,0"
       id="guide3502" />
    <sodipodi:guide
       orientation="0,1"
       position="149.19953,20"
       id="guide3504" />
    <sodipodi:guide
       orientation="0,1"
       position="122.32947,40"
       id="guide3506" />
    <sodipodi:guide
       orientation="0,1"
       position="102.53048,60"
       id="guide3508" />
    <sodipodi:guide
       orientation="0,1"
       position="112.42998,80"
       id="guide3510" />
    <sodipodi:guide
       orientation="0,1"
       position="133.64318,100"
       id="guide3512" />
    <sodipodi:guide
       orientation="0,1"
       position="146.3711,120"
       id="guide3514" />
    <sodipodi:guide
       orientation="0,1"
       position="118.79394,140"
       id="guide3516" />
    <sodipodi:guide
       orientation="0,1"
       position="139.30004,160"
       id="guide3518" />
    <sodipodi:guide
       orientation="0,1"
       position="118.08683,180"
       id="guide3520" />
    <sodipodi:guide
       orientation="0,1"
       position="116.67262,200"
       id="guide3522" />
    <sodipodi:guide
       orientation="0,1"
       position="60,220"
       id="guide4737"
       inkscape:label=""
       inkscape:color="rgb(0,0,255)" />
    <sodipodi:guide
       orientation="0,1"
       position="136.49999,240"
       id="guide4739"
       inkscape:label=""
       inkscape:color="rgb(0,0,255)" />
    <sodipodi:guide
       orientation="0,1"
       position="124.99999,260"
       id="guide4741"
       inkscape:label=""
       inkscape:color="rgb(0,0,255)" />
    <sodipodi:guide
       orientation="0,1"
       position="145.99999,280"
       id="guide4743"
       inkscape:label=""
       inkscape:color="rgb(0,0,255)" />
    <sodipodi:guide
       orientation="0,1"
       position="130.99999,300"
       id="guide4745"
       inkscape:label=""
       inkscape:color="rgb(0,0,255)" />
    <sodipodi:guide
       orientation="0,1"
       position="134.49999,320"
       id="guide4747"
       inkscape:label=""
       inkscape:color="rgb(0,0,255)" />
    <sodipodi:guide
       orientation="0,1"
       position="136.49999,340"
       id="guide4749"
       inkscape:label=""
       inkscape:color="rgb(0,0,255)" />
    <sodipodi:guide
       orientation="0,1"
       position="155.49999,360"
       id="guide4751"
       inkscape:label=""
       inkscape:color="rgb(0,0,255)" />
    <sodipodi:guide
       orientation="0,1"
       position="152.49999,380"
       id="guide4753"
       inkscape:label=""
       inkscape:color="rgb(0,0,255)" />
    <sodipodi:guide
       orientation="0,1"
       position="141.99999,400"
       id="guide4755"
       inkscape:label=""
       inkscape:color="rgb(0,0,255)" />
  </sodipodi:namedview>
  <metadata
     id="metadata7">
    <rdf:RDF>
      <cc:Work
         rdf:about="">
        <dc:format>image/svg+xml</dc:format>
        <dc:type
           rdf:resource="http://purl.org/dc/dcmitype/StillImage" />
        <dc:title />
      </cc:Work>
    </rdf:RDF>
  </metadata>
  <g
     inkscape:label="Layer 1"
     inkscape:groupmode="layer"
     id="layer1"
     transform="translate(0,-652.36218)">
    <g
       id="text4226"
       style="font-style:normal;font-variant:normal;font-weight:bold;font-stretch:normal;font-size:14.64247131px;line-height:125%;font-family:'Times New Roman';-inkscape-font-specification:'Times New Roman, Bold';text-align:start;letter-spacing:0px;word-spacing:0px;writing-mode:lr-tb;text-anchor:start;fill:#000000;fill-opacity:1;stroke:none;stroke-width:1px;stroke-linecap:butt;stroke-linejoin:miter;stroke-opacity:1"
       transform="matrix(1,0,0,1.2497829,36.125,-212.87402)" />
    <g
       id="text3105"
       style="font-style:normal;font-weight:normal;font-size:8.74215698px;line-height:125%;font-family:Sans;letter-spacing:0px;word-spacing:0px;fill:#000000;fill-opacity:1;stroke:none"
       transform="matrix(1,0,0,1.2497829,0,-262.86534)" />
    <g
       id="g3084"
       transform="translate(-545.31844,242.49809)"
       inkscape:export-filename="C:\Users\andrei\Desktop\htmledd\css\icons.png"
       inkscape:export-xdpi="90"
       inkscape:export-ydpi="90"
       style="fill:#000000">
      <path
         inkscape:connector-curvature="0"
         id="path3072"
         d="m 548.00776,454.85695 1.01015,-1.01015 1.04172,0 0,2.90419 0.91545,0 0,0.94701 -2.93576,0 0,-0.78918 0.91546,0 0,-1.10485 -0.94702,0 z"
         style="fill:#000000;stroke:none" />
      <path
         inkscape:connector-curvature="0"
         id="path3074"
         d="m 548.07089,459.78144 0,-0.94701 1.89404,0 1.04172,1.04172 0,0.78918 -1.08907,1.08907 1.0575,0 0,1.02593 -2.90419,0 0,-0.91545 0.88389,0 1.04172,-1.04172 0,-0.97858 z"
         style="fill:#000000;stroke:none" />
      <path
         inkscape:connector-curvature="0"
         id="path3076"
         d="m 548.03932,463.85362 0,0.97859 0.91546,0 1.01015,1.01015 0,0.94702 -1.98874,0 0,0.94702 1.98874,0 0.9628,-0.96281 0,-0.93123 -0.93913,-0.93913 0.98648,0 0,-1.01804 z"
         style="fill:#000000;stroke:none" />
      <path
         inkscape:connector-curvature="0"
         id="path3078"
         d="m 552.99539,454.79382 0,1.01015 9.02823,0 0,-0.97859 z"
         style="fill:#000000;stroke:none" />
      <path
         style="fill:#000000;stroke:none"
         d="m 552.99539,459.78358 0,1.01015 9.02823,0 0,-0.97859 z"
         id="path3080"
         inkscape:connector-curvature="0" />
      <path
         inkscape:connector-curvature="0"
         id="path3082"
         d="m 552.99539,464.73068 0,1.01015 9.02823,0 0,-0.97859 z"
         style="fill:#000000;stroke:none" />
    </g>
    <g
       id="g3104"
       transform="translate(-548.14163,243.08538)"
       inkscape:export-filename="C:\Users\andrei\Desktop\htmledd\css\icons.png"
       inkscape:export-xdpi="90"
       inkscape:export-ydpi="90"
       style="fill:#000000">
      <path
         inkscape:connector-curvature="0"
         id="path3092"
         d="m 570.98873,453.78366 0,2.90419 3.03046,0 0,-2.90419 z"
         style="fill:#000000;fill-opacity:1;stroke:none" />
      <path
         inkscape:connector-curvature="0"
         id="path3094"
         d="m 575.97636,454.79382 0,1.01015 8.99667,0 0,-1.02594 z"
         style="fill:#000000;stroke:none" />
      <path
         style="fill:#000000;fill-opacity:1;stroke:none"
         d="m 570.98873,458.7211 0,2.90419 3.03046,0 0,-2.90419 z"
         id="path3096"
         inkscape:connector-curvature="0" />
      <path
         style="fill:#000000;stroke:none"
         d="m 575.97636,459.73126 0,1.01015 8.99667,0 0,-1.02594 z"
         id="path3098"
         inkscape:connector-curvature="0" />
      <path
         inkscape:connector-curvature="0"
         id="path3100"
         d="m 570.98873,463.72078 0,2.90419 3.03046,0 0,-2.90419 z"
         style="fill:#000000;fill-opacity:1;stroke:none" />
      <path
         inkscape:connector-curvature="0"
         id="path3102"
         d="m 575.97636,464.73094 0,1.01015 8.99667,0 0,-1.02594 z"
         style="fill:#000000;stroke:none" />
    </g>
    <path
       style="fill:#000000;stroke:none"
       d="m 63,736.37501 0,13.0312 13.03125,0 0,-12.9687 L 63,736.37501 Z m 1.03125,1.09375 10.9375,0 0,10.96875 -10.9375,0 0,-10.96875 z m 4.96875,1 0,4.00005 -4,0 0,0.9687 4,0 0,3.9375 1,0 0,-3.9375 4.125,0 0,-0.9687 -4.125,0 0,-4.00005 -1,0 z"
       id="path3195"
       inkscape:export-filename="C:\Users\andrei\Desktop\htmledd\css\icons.png"
       inkscape:export-xdpi="90"
       inkscape:export-ydpi="90"
       inkscape:connector-curvature="0" />
    <path
       style="fill:#000000;stroke:none"
       d="m 57.59375,676.03126 -16.03125,0.0625 0,12.9375 16.03125,0 0,-13 z m -14.90625,1.0625 13.90625,0.125 0,10.8125 -13.90625,0 0,-10.9375 z m 0.90625,1.15625 0,2.59375 5.71875,0 0,-2.59375 -5.71875,0 z m 6.4375,0 0,2.59375 5.71875,0 0,-2.59375 -5.71875,0 z m -6.4375,3.125 0,2.625 5.71875,0 0,-2.625 -5.71875,0 z m 6.4375,0 0,2.625 5.71875,0 0,-2.625 -5.71875,0 z m -6.4375,3 0,2.625 5.71875,0 0,-2.625 -5.71875,0 z m 6.4375,0 0,2.625 5.71875,0 0,-2.625 -5.71875,0 z"
       id="path3261"
       inkscape:export-filename="C:\Users\andrei\Desktop\htmledd\css\icons.png"
       inkscape:export-xdpi="90"
       inkscape:export-ydpi="90"
       inkscape:connector-curvature="0" />
    <path
       style="fill:#000000;stroke:none"
       d="m 4.452696,659.74549 -0.64713,5.3033 5.303309,0 -2.241279,-2.1308 c 0,0 2.159709,-2.7044 4.544359,-2.7044 2.38466,0 3.73157,0.8305 2.8602,2.9549 -0.88423,2.1557 -1.45448,2.5192 -1.45448,2.5192 l 0.60404,0.6041 c 0,0 3.3783,-4.3681 1.637,-6.1094 -1.7413,-1.7413 -7.094279,-1.0609 -8.912399,2.0882 z"
       id="path3308"
       inkscape:connector-curvature="0"
       sodipodi:nodetypes="ccccssccscc"
       inkscape:export-filename="C:\Users\andrei\Desktop\htmledd\css\icons.png"
       inkscape:export-xdpi="90"
       inkscape:export-ydpi="90" />
    <path
       sodipodi:nodetypes="ccccssccscc"
       inkscape:connector-curvature="0"
       id="path3310"
       d="m 35.068032,659.74548 0.64713,5.3033 -5.303315,0 2.24128,-2.1308 c 0,0 -2.15971,-2.7044 -4.54436,-2.7044 -2.38466,0 -3.73157,0.8306 -2.8602,2.9549 0.88423,2.1557 1.45448,2.5192 1.45448,2.5192 l -0.60404,0.6041 c 0,0 -3.3783,-4.3681 -1.637,-6.1094 1.7413,-1.7413 7.09428,-1.0608 8.912405,2.0882 z"
       style="fill:#000000;stroke:none"
       inkscape:export-filename="C:\Users\andrei\Desktop\htmledd\css\icons.png"
       inkscape:export-xdpi="90"
       inkscape:export-ydpi="90" />
    <g
       id="g3159"
       inkscape:export-filename="C:\Users\andrei\Desktop\htmledd\css\icons.png"
       inkscape:export-xdpi="90"
       inkscape:export-ydpi="90"
       transform="translate(-0.24999999,-259.74999)">
      <path
         inkscape:export-ydpi="90"
         inkscape:export-xdpi="90"
         inkscape:export-filename="C:\Users\andrei\Desktop\htmledd\css\icons.png"
         sodipodi:nodetypes="cccc"
         inkscape:connector-curvature="0"
         id="path3117"
         d="m 1.462053,1020.0575 3.75,3.75 3.457107,-3.7665 z"
         style="fill:#000000;stroke:none" />
      <path
         inkscape:export-ydpi="90"
         inkscape:export-xdpi="90"
         inkscape:export-filename="C:\Users\andrei\Desktop\htmledd\css\icons.png"
         style="fill:#000000;stroke:none"
         d="m 11.337053,1023.791 3.75,-3.75 3.457107,3.7665 z"
         id="path3119"
         inkscape:connector-curvature="0"
         sodipodi:nodetypes="cccc" />
    </g>
    <path
       style="fill:#ffffff;stroke:#000000;stroke-width:1px;stroke-linecap:butt;stroke-linejoin:miter;stroke-opacity:1"
       d="m 2.799398,775.55321 0,7.955 12.06501,0 0,-7.9108 z"
       id="path3182"
       inkscape:connector-curvature="0"
       inkscape:export-filename="C:\Users\andrei\Desktop\htmledd\css\icons.png"
       inkscape:export-xdpi="90"
       inkscape:export-ydpi="90" />
    <g
       style="font-style:normal;font-weight:normal;font-size:40px;line-height:125%;font-family:Sans;letter-spacing:0px;word-spacing:0px;fill:#000000;fill-opacity:1;stroke:none"
       id="text3184"
       transform="matrix(0.1858782,0,0,0.1858782,42.963327,593.60196)"
       inkscape:export-filename="C:\Users\andrei\Desktop\htmledd\css\icons.png"
       inkscape:export-xdpi="90"
       inkscape:export-ydpi="90">
      <path
         d="m -180.9267,1012.7642 -6.28906,0 -2.5,-6.5039 -11.44531,0 -2.36328,6.5039 -6.13282,0 11.15235,-28.63279 6.11328,0 z m -10.64453,-11.3281 -3.94531,-10.625 -3.86719,10.625 z"
         style="font-weight:bold"
         id="path3194"
         inkscape:connector-curvature="0" />
      <path
         d="m -173.77826,998.35016 -4.98047,-0.89844 c 0.5599,-2.00519 1.52344,-3.48956 2.89063,-4.45312 1.36718,-0.96352 3.39843,-1.4453 6.09375,-1.44532 2.4479,2e-5 4.27082,0.28974 5.46875,0.86914 1.1979,0.57945 2.04099,1.31513 2.52929,2.20704 0.48827,0.89194 0.73241,2.52931 0.73243,4.9121 l -0.0586,6.40624 c -2e-5,1.8229 0.0879,3.1673 0.26367,4.0332 0.17577,0.8659 0.50454,1.7936 0.98633,2.7832 l -5.42969,0 c -0.14324,-0.3646 -0.31902,-0.9049 -0.52734,-1.6211 -0.0912,-0.3255 -0.15626,-0.5403 -0.19531,-0.6445 -0.93752,0.9115 -1.94012,1.595 -3.00781,2.0508 -1.06772,0.4557 -2.20705,0.6836 -3.41797,0.6836 -2.13543,0 -3.81837,-0.5795 -5.04883,-1.7383 -1.23047,-1.1589 -1.84571,-2.6237 -1.8457,-4.3945 -1e-5,-1.1719 0.27994,-2.2168 0.83984,-3.1348 0.55989,-0.918 1.3444,-1.6211 2.35352,-2.1094 1.0091,-0.4883 2.46418,-0.9147 4.36523,-1.2793 2.56509,-0.4817 4.34243,-0.93096 5.33203,-1.34764 l 0,-0.54687 c -1e-5,-1.05467 -0.26043,-1.80662 -0.78125,-2.25586 -0.52085,-0.4492 -1.50392,-0.67381 -2.94922,-0.67383 -0.97657,2e-5 -1.73829,0.19208 -2.28515,0.57617 -0.54689,0.38413 -0.98959,1.05796 -1.32813,2.02149 z m 7.34375,4.45314 c -0.70314,0.2344 -1.81642,0.5143 -3.33984,0.8398 -1.52345,0.3256 -2.51954,0.6446 -2.98828,0.9571 -0.71616,0.5078 -1.07423,1.1523 -1.07422,1.9336 -1e-5,0.7682 0.28645,1.4322 0.85937,1.9921 0.57291,0.5599 1.30208,0.8399 2.1875,0.8399 0.98957,0 1.93358,-0.3255 2.83203,-0.9766 0.66405,-0.4948 1.10025,-1.1002 1.3086,-1.8164 0.14321,-0.4687 0.21483,-1.3607 0.21484,-2.6758 z"
         style="font-weight:bold"
         id="path3196"
         inkscape:connector-curvature="0" />
    </g>
    <path
       style="fill:#000000;fill-opacity:1;stroke:none"
       d="m 13.1875,780.75001 -5.46875,6.0938 -0.0625,1.125 2.0625,1.9062 2.78125,0.2188 5.25,-4.9688 -0.03125,-3.1562 -1.21875,-1.2188 -3.3125,0 z m -4.375,5.3438 2.0625,2.0937 -0.96875,0.9687 -0.21875,0.1876 -1.6875,-1.6876 0.03125,-0.7812 0.78125,-0.7812 z m 2.5,2.25 2.28125,0.1874 -1.28125,1.0938 -2.125,-0.125 1.125,-1.1562 z"
       id="path3174"
       inkscape:connector-curvature="0"
       inkscape:export-filename="C:\Users\andrei\Desktop\htmledd\css\icons.png"
       inkscape:export-xdpi="90"
       inkscape:export-ydpi="90" />
    <path
       style="fill:#000000;stroke:none"
       d="m 5.6750008,737.7327 0,1.01242 1.5502655,0 0,8.09929 -1.5502655,0 0,1.0757 6.0745102,0 c 1.622096,0.062 3.086327,-0.7041 3.068893,-3.1006 -0.04566,-1.6433 -0.925766,-2.5943 -2.594322,-2.5943 0.951278,-0.3144 2.072562,-0.3194 2.056475,-2.05642 -0.102842,-1.91026 -1.222506,-2.11694 -2.341218,-2.37281 z m 4.0813112,1.04406 c 1.757305,3.1e-4 2.058449,0.29138 2.024837,1.36043 0.03999,1.69462 -0.671861,1.53212 -2.024837,1.55022 z m 0,4.11295 c 1.792133,-0.046 2.50938,0.2249 2.531046,1.9298 0.02683,2.1136 -2.531046,2.0249 -2.531046,2.0249 z"
       id="path3246"
       inkscape:connector-curvature="0"
       sodipodi:nodetypes="cccccccccccccccccccc"
       inkscape:export-filename="C:\Users\andrei\Desktop\htmledd\css\icons.png"
       inkscape:export-xdpi="90"
       inkscape:export-ydpi="90" />
    <path
       inkscape:connector-curvature="0"
       id="path3267"
       d="m 62.883315,656.7999 0,11.9375 13.999997,0 0,-11.9375 -13.999997,0 z m 13.062497,1 0,8.2812 -2.406247,-2.4374 -2.1875,2.1874 -3.9375,-3.9687 -3.53125,3.5313 0,-7.5626 12.062497,-0.031 z m -4.562497,0.9688 c -1.24063,-0.01 -1.3502,0.6982 -1.4375,1.4374 0.11221,1.1386 0.77593,1.4101 1.46875,1.5 0.70113,-0.085 1.2613,-0.4162 1.40625,-1.4374 -0.0554,-0.7401 -0.28199,-1.4252 -1.4375,-1.5 z"
       style="fill:#000000;stroke:none"
       inkscape:export-filename="C:\Users\andrei\Desktop\htmledd\css\icons.png"
       inkscape:export-xdpi="90"
       inkscape:export-ydpi="90" />
    <path
       inkscape:connector-curvature="0"
       id="path3291"
       d="m 65.758315,697.80534 0,1 10,0 0,-1 -10,0 z m 10,1.96875 -7,0.0312 0,1.96875 7,0 0,-2 z m -11.96875,0.0312 -0.0312,2 -1.96875,0 0,1 1.96875,0 0,1.9375 2.8125,-2.5625 -2.78125,-2.375 z m 4.96875,2.96875 0,2.03125 4,0 0,-2 -4,-0.0312 z m -3,3 0,1 10,0 0,-1 -10,0 z m 0,2 0,1 10,0 0,-1 -10,0 z"
       style="fill:#000000;stroke:none"
       inkscape:export-filename="C:\Users\andrei\Desktop\htmledd\css\icons.png"
       inkscape:export-xdpi="90"
       inkscape:export-ydpi="90" />
    <path
       inkscape:connector-curvature="0"
       id="path3317"
       d="m 46.344129,697.80534 0,1 10,0 0,-1 -10,0 z m 10,1.96875 -7,0.0312 0,1.96875 7,0 0,-2 z m -11.1875,0.0312 -2.78125,2.375 2.8125,2.5625 0,-1.9375 1.96875,0 0,-1 -1.96875,0 -0.0312,-2 z m 4.1875,2.96875 0,2.03125 4,0 0,-2 -4,-0.0312 z m -3,3 0,1 10,0 0,-1 -10,0 z m 0,2 0,1 10,0 0,-1 -10,0 z"
       style="fill:#000000;stroke:none"
       inkscape:export-filename="C:\Users\andrei\Desktop\htmledd\css\icons.png"
       inkscape:export-xdpi="90"
       inkscape:export-ydpi="90" />
    <path
       inkscape:connector-curvature="0"
       id="path3320"
       d="m 74.039565,678.86209 c -1.90639,-0.085 -2.69469,0.9375 -3.3125,1.9375 2.05164,-0.5497 4.3125,-0.3995 4.3125,1.7813 -0.0109,1.658 -1.49512,2.5198 -4.0625,2.0624 0.78772,0.9455 1.19257,1.5 3.03125,1.5 1.83868,0 3.65625,-1.7097 3.65625,-3.6562 0,-1.9465 -1.71861,-3.54 -3.625,-3.625 z m -8.625,0.062 c -1.90639,0.085 -3.625,1.6785 -3.625,3.625 0,1.9465 1.84882,3.6563 3.6875,3.6563 1.83868,0 2.21228,-0.5546 3,-1.5 -2.56738,0.4573 -4.05158,-0.4045 -4.0625,-2.0626 0,-2.1807 2.26086,-2.3309 4.3125,-1.7812 -0.61781,-1 -1.40611,-2.0226 -3.3125,-1.9375 z m 7.375,2.9063 -6.03125,0.031 c -0.67045,0.174 -0.87654,0.547 -0.96875,0.9688 0.11781,0.3631 0.18809,0.7174 1.03125,1 l 5.90625,0 c 0.72505,-0.1841 0.87588,-0.6031 1.03125,-1.0313 -0.0818,-0.618 -0.47309,-0.8474 -0.96875,-0.9687 z"
       style="fill:#000000;stroke:none"
       inkscape:export-filename="C:\Users\andrei\Desktop\htmledd\css\icons.png"
       inkscape:export-xdpi="90"
       inkscape:export-ydpi="90" />
    <path
       sodipodi:nodetypes="ccccccccccccccccccc"
       inkscape:connector-curvature="0"
       id="path3330"
       d="m 25.250037,686.50281 0,1.016 3.00521,0 0,-1.016 -1.19325,0 0.82705,-2.0028 3.51935,0 -0.4272,-1.0021 -2.67782,0 1.27769,-3.0884 2.69208,6.0982 -1.0274,0 0,1.0175 3.99218,0 0,-1.0175 -0.97496,0 -4.32835,-8.9704 -3.69021,8.9655 z"
       style="fill:#000000;stroke:none"
       inkscape:export-filename="C:\Users\andrei\Desktop\htmledd\css\icons.png"
       inkscape:export-xdpi="90"
       inkscape:export-ydpi="90" />
    <g
       id="g3435"
       transform="translate(23.791631,-259.96529)"
       inkscape:export-filename="C:\Users\andrei\Desktop\htmledd\css\icons.png"
       inkscape:export-xdpi="90"
       inkscape:export-ydpi="90">
      <g
         id="g3439"
         transform="translate(-268.63761,-139.21982)">
        <path
           sodipodi:nodetypes="cczccccccccc"
           inkscape:connector-curvature="0"
           id="path3332"
           d="m 254.375,1076.3438 -6.03125,5.5 c -0.24086,1.4503 0.39368,2.3168 1.21875,3.375 0.82507,1.0582 1.76614,2.0456 3.375,1.8437 l 6.09375,-6.0937 c -1.385,-0.6326 -3.94508,-2.6776 -4.65625,-4.625 z m -1.28125,3.0937 c 0.92887,1.3596 1.85238,2.0338 2.78125,2.6563 l -1.46875,1.375 c -0.77097,-0.1075 -1.41581,-0.3091 -2.03125,-0.9688 -0.29692,-0.4447 -0.578,-0.9408 -0.625,-1.7187 z"
           style="fill:#000000;stroke:none" />
        <path
           sodipodi:nodetypes="ccccc"
           inkscape:connector-curvature="0"
           id="path3338"
           d="m 256.875,1077.8935 c 2.36814,-0.6489 4.81659,1.0326 5.1875,4.1562 -0.66944,4.4331 -2.59095,4.4153 -3.40625,4.3125 -1.58083,-1.1024 0.96853,-2.6458 1.21875,-4.3438 0.27741,-2.6811 -1.00509,-3.266 -3,-4.1249 z"
           style="fill:#000000;stroke:none" />
      </g>
    </g>
    <path
       inkscape:connector-curvature="0"
       id="path3340"
       d="m 4.0910538,717.26433 0,1 12.0000002,0 0,-1 -12.0000002,0 z m 0,2 0,1 8.9687502,0 0,-1 -8.9687502,0 z m 0,2.0312 0,0.9688 12.0000002,0 0,-0.9688 -12.0000002,0 z m 0,2 0,1 8.9687502,0 0,-1 -8.9687502,0 z m 0,2 0,1 12.0000002,0 0,-1 -12.0000002,0 z m 0,2 0,1 8.9687502,0 0,-1 -8.9687502,0 z"
       style="fill:#000000;stroke:none"
       inkscape:export-filename="C:\Users\andrei\Desktop\htmledd\css\icons.png"
       inkscape:export-xdpi="90"
       inkscape:export-ydpi="90" />
    <path
       inkscape:connector-curvature="0"
       id="path3352"
       d="m 43.689034,717.27993 0,0.9688 12,0 0,-0.9688 -12,0 z m 1.5,2 0,1 9,0 0,-1 -9,0 z m -1.5,2 0,1 12,0 0,-1 -12,0 z m 1.5,2 0,1 9,0 0,-1 -9,0 z m -1.5,2 0,1 12,0 0,-1 -12,0 z m 1.5,2.0312 0,0.9688 9,0 0,-0.9688 -9,0 z"
       style="fill:#000000;stroke:none"
       inkscape:export-filename="C:\Users\andrei\Desktop\htmledd\css\icons.png"
       inkscape:export-xdpi="90"
       inkscape:export-ydpi="90" />
    <path
       inkscape:connector-curvature="0"
       id="path3365"
       d="m 24.046294,717.26433 0,1 12,0 0,-1 -12,0 z m 3.03125,2 0,1 8.96875,0 0,-1 -8.96875,0 z m -3.03125,2 0,1 12,0 0,-1 -12,0 z m 3.03125,2 0,1 8.96875,0 0,-1 -8.96875,0 z m -3.03125,2.0312 0,0.9688 12,0 0,-0.9688 -12,0 z m 3.03125,2 0,1 8.96875,0 0,-1 -8.96875,0 z"
       style="fill:#000000;stroke:none"
       inkscape:export-filename="C:\Users\andrei\Desktop\htmledd\css\icons.png"
       inkscape:export-xdpi="90"
       inkscape:export-ydpi="90" />
    <path
       inkscape:connector-curvature="0"
       id="path3377"
       d="m 64.19513,717.26433 0,1 12,0 0,-1 -12,0 z m 0,2 0,1 12,0 0,-1 -12,0 z m 0,2.0312 0,0.9688 12,0 0,-0.9688 -12,0 z m 0,2 0,1 12,0 0,-1 -12,0 z m 0,2 0,1 12,0 0,-1 -12,0 z m 0,2 0,1 12,0 0,-1 -12,0 z"
       style="fill:#000000;stroke:none"
       inkscape:export-filename="C:\Users\andrei\Desktop\htmledd\css\icons.png"
       inkscape:export-xdpi="90"
       inkscape:export-ydpi="90" />
    <g
       id="g3414"
       transform="translate(-272.96785,-363.06631)"
       inkscape:export-filename="C:\Users\andrei\Desktop\htmledd\css\icons.png"
       inkscape:export-xdpi="90"
       inkscape:export-ydpi="90">
      <path
         sodipodi:nodetypes="ccccccccccccc"
         inkscape:connector-curvature="0"
         id="path3393"
         d="m 297.50413,1121.8907 3.48029,3.4803 -3.45819,3.4582 1.02751,1.0275 3.49134,-3.4914 3.49134,3.4914 1.03856,-1.0386 -3.54658,-3.5466 3.46924,-3.4692 -1.03856,-1.0386 -3.49134,3.4914 -3.414,-3.414 c -0.34994,0.3498 -0.69975,0.6997 -1.04961,1.0496 z"
         style="fill:#000000;stroke:none" />
      <text
         sodipodi:linespacing="125%"
         id="text3395"
         y="1131.3925"
         x="307.87903"
         style="font-style:normal;font-weight:normal;font-size:5.95524168px;line-height:125%;font-family:Sans;letter-spacing:0px;word-spacing:0px;fill:#000000;fill-opacity:1;stroke:none"
         xml:space="preserve"><tspan
           style="font-style:normal;font-variant:normal;font-weight:bold;font-stretch:normal;font-family:Arial;-inkscape-font-specification:'Arial Bold'"
           y="1131.3925"
           x="307.87903"
           id="tspan3397"
           sodipodi:role="line">2</tspan></text>
    </g>
    <g
       id="g4215"
       inkscape:export-xdpi="90"
       inkscape:export-ydpi="90"
       transform="translate(-0.24999999,-259.74999)"
       inkscape:export-filename="C:\Users\andrei\Desktop\htmledd\css\icons.png">
      <path
         style="fill:#000000;stroke:none"
         d="m 45.30642,1018.793 3.48029,3.4803 -3.45819,3.4583 1.02751,1.0274 3.49134,-3.4914 3.49134,3.4914 1.03856,-1.0386 -3.54658,-3.5466 3.46924,-3.4692 -1.03856,-1.0386 -3.49134,3.4914 -3.414,-3.414 c -0.34994,0.3498 -0.69975,0.6997 -1.04961,1.0496 z"
         id="path3399"
         inkscape:connector-curvature="0"
         sodipodi:nodetypes="ccccccccccccc" />
      <text
         xml:space="preserve"
         style="font-style:normal;font-weight:normal;font-size:5.95524168px;line-height:125%;font-family:Sans;letter-spacing:0px;word-spacing:0px;fill:#000000;fill-opacity:1;stroke:none"
         x="55.55632"
         y="1020.0448"
         id="text3401"
         sodipodi:linespacing="125%"><tspan
           sodipodi:role="line"
           id="tspan3403"
           x="55.55632"
           y="1020.0448"
           style="font-style:normal;font-variant:normal;font-weight:bold;font-stretch:normal;font-family:Arial;-inkscape-font-specification:'Arial Bold'">2</tspan></text>
    </g>
    <path
       style="fill:#000000;stroke:none"
       d="m 43.149928,656.76865 0,12 13.999997,0 0,-12 z m 4.6875,2.9062 5.374997,3.3437 -5.374997,3.3438 z"
       id="path3405"
       inkscape:connector-curvature="0"
       sodipodi:nodetypes="ccccccccc"
       inkscape:export-filename="C:\Users\andrei\Desktop\htmledd\css\icons.png"
       inkscape:export-xdpi="90"
       inkscape:export-ydpi="90" />
    <path
       style="fill:#000000;fill-opacity:1;stroke:none"
       d="m 69.875,757.68751 c -2.24551,0 -4.0625,1.817 -4.0625,4.0625 0,2.2455 1.81699,4.0938 4.0625,4.0938 2.24551,0 4.0625,-1.8483 4.0625,-4.0938 0,-2.2455 -1.81699,-4.0625 -4.0625,-4.0625 z m 0,1.375 c 1.48887,0 2.6875,1.1986 2.6875,2.6875 0,0.5583 -0.17954,1.0657 -0.46875,1.5 l -3.71875,-3.7188 c 0.43429,-0.2892 0.94167,-0.4687 1.5,-0.4687 z m -2.125,1.0625 3.75,3.75 c -0.45372,0.3564 -1.00507,0.5938 -1.625,0.5938 -1.48887,0 -2.71875,-1.2299 -2.71875,-2.7188 0,-0.6199 0.23738,-1.1713 0.59375,-1.625 z"
       id="path3460"
       inkscape:connector-curvature="0"
       inkscape:export-filename="C:\Users\andrei\Desktop\htmledd\css\icons.png"
       inkscape:export-xdpi="90"
       inkscape:export-ydpi="90" />
    <path
       style="fill:#000000;stroke:none"
       d="m 29.535156,777.74021 c -0.862723,0 -1.577326,0.2731 -2.144531,0.8164 -0.567205,0.5434 -0.851563,1.2005 -0.851563,1.9727 0,0.4528 0.103638,0.8675 0.308594,1.2441 0.07897,0.1418 0.183132,0.2727 0.28711,0.4043 l -5.248047,0 0.0039,0.9375 6.333984,0 c 0.371184,0.2364 0.814997,0.4925 1.417969,0.7891 0.629169,0.3098 1.068552,0.5624 1.316406,0.7578 0.99577,1.6467 -3.412649,1.7131 -4.162109,-0.4433 l -0.263672,0 0,3.6601 0.263672,0 c 0.0858,-0.1955 0.197711,-0.3405 0.335937,-0.4355 0.138227,-0.095 0.270605,-0.1426 0.394532,-0.1426 0.147759,0 0.335664,0.048 0.564453,0.1426 0.409913,0.1716 0.749798,0.2876 1.021484,0.3496 0.271687,0.062 0.560183,0.094 0.865235,0.094 0.972351,0 1.773175,-0.2915 2.402343,-0.873 0.633935,-0.5863 0.951172,-1.2835 0.951172,-2.0938 0,-0.6387 -0.19509,-1.2055 -0.585937,-1.7011 -0.02693,-0.034 -0.06926,-0.07 -0.09961,-0.1036 l 4.525391,0 0,-0.9375 -5.736328,0 c -0.293314,-0.1768 -0.611047,-0.3555 -0.984375,-0.539 -0.810293,-0.4004 -1.328712,-0.6806 -1.552734,-0.8379 -0.950745,-0.7448 0.684118,-1.8798 2.429687,-1.1602 0.543373,0.491 0.971148,0.5218 1.109375,1.3321 l 0.294922,0 -0.08008,-3.2325 -0.214844,0 c -0.06196,0.2908 -0.127723,0.4745 -0.199219,0.5508 -0.0715,0.076 -0.169041,0.1152 -0.292969,0.1152 -0.128693,0 -0.35557,-0.076 -0.679687,-0.2285 -0.319351,-0.1573 -0.590431,-0.265 -0.814453,-0.3222 -0.295519,-0.076 -0.601431,-0.1153 -0.916016,-0.1153 z"
       id="path3265"
       inkscape:export-xdpi="90"
       inkscape:export-ydpi="90"
       inkscape:connector-curvature="0"
       inkscape:export-filename="C:\Users\andrei\Desktop\htmledd\css\icons.png" />
    <g
       style="font-style:italic;font-variant:normal;font-weight:normal;font-stretch:normal;font-size:40px;line-height:125%;font-family:'Times New Roman';-inkscape-font-specification:'Times New Roman, Italic';text-align:start;letter-spacing:0px;word-spacing:0px;writing-mode:lr-tb;text-anchor:start;fill:#000000;fill-opacity:1;stroke:none;stroke-width:1px;stroke-linecap:butt;stroke-linejoin:miter;stroke-opacity:1"
       id="text4243"
       transform="matrix(0.38289087,0,0,0.38289087,46.11921,370.36796)"
       inkscape:export-xdpi="90"
       inkscape:export-ydpi="90"
       inkscape:export-filename="C:\Users\andrei\Desktop\htmledd\css\icons.png">
      <path
         d="m -37.897181,985.26453 -0.214843,0.72265 -12.637976,0 0.273438,-0.72265 c 1.09375,-0.0261 1.816406,-0.11721 2.167968,-0.27344 0.572917,-0.22135 0.996094,-0.52734 1.269532,-0.91797 0.429687,-0.61198 0.872396,-1.70573 1.328125,-3.28125 l 4.609375,-15.97656 c 0.390625,-1.32813 0.585937,-2.33073 0.585937,-3.00781 0,-0.33855 -0.08463,-0.62501 -0.253906,-0.85938 -0.169271,-0.23437 -0.429687,-0.41015 -0.78125,-0.52734 -0.338542,-0.13021 -1.009115,-0.19532 -2.011719,-0.19532 l 0.234375,-0.72265 11.973913,0 -0.214844,0.72265 c -0.833333,-0.013 -1.451822,0.0782 -1.855468,0.27344 -0.585938,0.26042 -1.035157,0.63151 -1.347657,1.11328 -0.299478,0.48177 -0.690103,1.54948 -1.171875,3.20313 l -4.589843,15.97656 c -0.416666,1.47135 -0.625,2.40885 -0.625,2.8125 0,0.32552 0.07813,0.60547 0.234375,0.83984 0.169271,0.22136 0.429688,0.39714 0.78125,0.52735 0.364584,0.11719 1.113281,0.21484 2.246093,0.29297 z"
         id="path4248"
         inkscape:connector-curvature="0"
         sodipodi:nodetypes="ccccccccsscccccccccsccc"
         inkscape:export-xdpi="90"
         inkscape:export-ydpi="90" />
    </g>
    <path
       style="fill:#000000;stroke:none"
       d="m 44.98434,748.80671 0,1.0386 10.05418,0 0,-1.0165 z"
       id="path3259"
       inkscape:connector-curvature="0"
       inkscape:export-xdpi="90"
       inkscape:export-ydpi="90"
       inkscape:export-filename="C:\Users\andrei\Desktop\htmledd\css\icons.png" />
    <g
       style="font-style:normal;font-variant:normal;font-weight:bold;font-stretch:normal;font-size:14.92488289px;line-height:125%;font-family:'Times New Roman';-inkscape-font-specification:'Times New Roman, Bold';text-align:start;letter-spacing:0px;word-spacing:0px;writing-mode:lr-tb;text-anchor:start;fill:#000000;fill-opacity:1;stroke:none;stroke-width:1px;stroke-linecap:butt;stroke-linejoin:miter;stroke-opacity:1"
       id="text4250"
       inkscape:export-xdpi="90"
       inkscape:export-ydpi="90"
       transform="translate(-0.24999999,-259.74999)"
       inkscape:export-filename="C:\Users\andrei\Desktop\htmledd\css\icons.png">
      <path
         inkscape:connector-curvature="0"
         d="m 45.062498,997.50268 5.101278,0 0,0.26964 -0.255064,0 c -0.38381,0 -0.64859,0.0413 -0.794341,0.12388 -0.140893,0.0777 -0.242918,0.18705 -0.306077,0.32794 -0.0583,0.14089 -0.08745,0.49313 -0.08745,1.0567 l 0,4.83896 c 0,0.8842 0.06559,1.4696 0.196764,1.7563 0.674983,0.955 2.848301,0.6753 3.12376,-0.3571 0.189476,-0.4227 0.284214,-1.1587 0.284214,-2.2082 l 0,-4.02996 c 0,-0.44211 -0.04615,-0.75791 -0.138463,-0.94738 -0.09231,-0.18948 -0.20891,-0.32066 -0.349802,-0.39353 -0.218627,-0.11174 -0.527133,-0.16761 -0.925518,-0.16761 l 0,-0.26964 4.324107,0 0,0.26964 -0.204052,0 c -0.276926,0 -0.507698,0.0559 -0.692316,0.16761 -0.184617,0.11174 -0.318222,0.27935 -0.400815,0.50284 -0.06316,0.15547 -0.09474,0.43482 -0.09474,0.83807 l 0,3.75306 c 0,1.1611 -0.07773,1.9992 -0.233201,2.5142 -0.150609,0.515 -0.522274,0.9887 -1.114994,1.4211 -0.59272,0.4324 -1.401637,0.6486 -2.426751,0.6486 -0.855071,0 -1.515808,-0.1142 -1.982211,-0.3425 -0.636445,-0.3109 -1.085843,-0.7093 -1.348195,-1.1952 -0.262351,-0.4858 -0.393527,-1.1392 -0.393527,-1.9603 l 0,-4.83896 c 0,-0.56843 -0.03158,-0.92066 -0.09474,-1.0567 -0.06316,-0.14089 -0.172473,-0.25263 -0.327939,-0.33522 -0.155468,-0.0826 -0.442111,-0.12146 -0.85993,-0.1166 z"
         style="font-weight:bold"
         id="path4257"
         sodipodi:nodetypes="cccsccssccssscccccsscsscssccsscscc"
         inkscape:export-xdpi="90"
         inkscape:export-ydpi="90" />
    </g>
    <path
       style="fill:#000000;stroke:none"
       d="m 45.05642,779.04301 3.48029,3.4803 -3.45819,3.4583 1.02751,1.0274 3.49134,-3.4914 3.49134,3.4914 1.03856,-1.0386 -3.54658,-3.5466 3.46924,-3.4692 -1.03856,-1.0386 -3.49134,3.4914 -3.414,-3.414 c -0.34994,0.3498 -0.69975,0.6997 -1.04961,1.0496 z"
       id="path4213"
       inkscape:connector-curvature="0"
       sodipodi:nodetypes="ccccccccccccc"
       inkscape:export-xdpi="90"
       inkscape:export-ydpi="90"
       inkscape:export-filename="C:\Users\andrei\Desktop\htmledd\css\icons.png" />
    <path
       style="fill:#000000;stroke:none"
       d="m 4.4375013,796.93751 0,1.625 3.6875,0 0,-1.625 -3.6875,0 z m 9.4687497,2.25 -9.4062497,0.062 -1.09375,1.125 0,5.875 1.1875,1.2188 9.1874997,0 1.25,-1.2813 0,-5.875 -1.125,-1.125 z m -4.7499997,2.4063 1.7812497,2.8437 -3.4374997,0 1.65625,-2.8437 z"
       id="path3083"
       inkscape:connector-curvature="0"
       inkscape:export-filename="C:\Users\andrei\Desktop\htmledd\css\icons.png"
       inkscape:export-xdpi="90"
       inkscape:export-ydpi="90" />
    <path
       style="fill:#000000;stroke:none"
       d="m 25.299094,801.72761 2.268525,-4.92725 0.862771,2.10778 c 1.043338,-1.46565 2.398314,-2.13631 3.537007,-2.07633 1.98021,0.39961 2.692811,2.12724 2.670284,4.6251 l -1.48618,0.1661 c -0.564948,-3.54213 -1.026036,-4.43472 -3.795856,-1.6289 l 1.475042,1.6267 z"
       id="path3095"
       inkscape:connector-curvature="0"
       sodipodi:nodetypes="ccccccccc"
       inkscape:export-xdpi="90"
       inkscape:export-ydpi="90" />
    <path
       sodipodi:nodetypes="ccccccccc"
       inkscape:connector-curvature="0"
       id="path3099"
       d="m 34.85313,802.63931 -2.268524,4.9272 -0.862772,-2.1077 c -1.043338,1.4656 -2.398314,2.1363 -3.537007,2.0763 -1.980209,-0.3996 -2.692811,-2.1272 -2.670284,-4.6251 l 1.48618,-0.1661 c 0.564949,3.5421 1.026036,4.4347 3.795856,1.6289 l -1.475042,-1.6267 z"
       style="fill:#000000;stroke:none"
       inkscape:export-xdpi="90"
       inkscape:export-ydpi="90" />
    <g
       id="g3136"
       transform="translate(-18.937499,-239.93749)"
       inkscape:export-filename="C:\Users\andrei\Desktop\htmledd\css\icons.png"
       inkscape:export-xdpi="90"
       inkscape:export-ydpi="90">
      <path
         inkscape:connector-curvature="0"
         d="m 69.029153,1041.7372 -1.374499,0 -0.546385,-1.4215 -2.501418,0 -0.516505,1.4215 -1.34035,0 2.437389,-6.2578 1.336081,0 z m -2.326404,-2.4758 -0.862264,-2.3222 -0.845189,2.3222 z"
         style="font-style:normal;font-weight:bold;font-size:8.74215698px;line-height:125%;font-family:Sans;letter-spacing:0px;word-spacing:0px;fill:#000000;fill-opacity:1;stroke:none"
         id="path3130" />
      <g
         style="font-style:normal;font-weight:normal;font-size:8.74215698px;line-height:125%;font-family:Sans;letter-spacing:0px;word-spacing:0px;fill:#000000;fill-opacity:1;stroke:none"
         id="text3109">
        <path
           inkscape:connector-curvature="0"
           d="m 63.218906,1048.7372 0,-1.1397 3.286846,-4.0595 -2.915475,0 0,-1.0586 4.580241,0 0,0.9818 -3.427711,4.2216 3.560039,0 0,1.0544 z"
           style="font-weight:bold"
           id="path3133" />
      </g>
      <path
         style="fill:#000000;stroke:none"
         d="m 72.314179,1047.6714 -2.858334,-4.48 2.205395,0 -0.03907,-4.5116 1.588015,0.034 -0.125225,4.4776 2.185845,0 z"
         id="path3115"
         inkscape:connector-curvature="0"
         sodipodi:nodetypes="cccccccc" />
    </g>
    <path
       style="opacity:1;fill:#000000;fill-opacity:1;stroke:none"
       d="m 14.349609,815.63871 0,2.2539 -2.160156,0 0,1.1054 2.160156,0 0,2.1641 1.066407,0 0,-2.1641 2.076172,0 0,-1.1054 -2.076172,0 0,-2.2539 -1.066407,0 z M 2.25,816.98631 l 0,2.6875 9.3125,0 0,-2.6875 -9.3125,0 z m -0.046875,3.0625 0,2.6875 9.40625,0 0,-0.6328 1.675781,0 0,0.6856 -0.986328,0 0.259766,0.3222 -6.4667971,0 0,2.6875 9.9375001,0 0,-2.6875 -1.173828,0 0.238281,-0.3222 -0.982422,0 0,-1.6231 -2.501953,0 0,-1.1172 -9.40625,0 z m 0.5722656,0.5625 8.2617184,0 0,1.5 -8.2617184,0 0,-1.5 z m 3.921875,3.0625 6.3125004,0 0.74414,0.9239 0.683594,-0.9239 0.986328,0 0,1.5 -8.7265624,0 0,-1.5 z m -4.4472656,2.5 0,2.6875 9.375,0 0,-2.6875 -9.375,0 z"
       id="rect4374"
       inkscape:export-xdpi="90"
       inkscape:export-ydpi="90"
       inkscape:connector-curvature="0" />
    <path
       style="opacity:1;fill:#000000;fill-opacity:1;stroke:none"
       d="m 22.125,816.98631 0,2.6875 9.3125,0 0,-2.6875 -9.3125,0 z m 3.841797,3.0625 0,2.6875 6.349609,0 -0.392578,0.4883 0.986328,0 0,0.6856 -1.425781,0 0,-0.7989 -9.40625,0 0,2.6875 9.40625,0 0,-0.9511 2.251953,0 0,-1.6231 0.982422,0 -0.361328,-0.4883 1.546875,0 0,-2.6875 -9.9375,0 z m 0.605469,0.625 8.726562,0 0,1.5 -1.359375,0 -0.560547,-0.7578 -0.609375,0.7578 -6.197265,0 0,-1.5 z m -3.921875,3.0625 8.261718,0 0,1.5 -8.261718,0 0,-1.5 z m 11.699218,0.7774 0,2.2539 -2.160156,0 0,1.1054 2.160156,0 0,2.1641 1.066407,0 0,-2.1641 2.076172,0 0,-1.1054 -2.076172,0 0,-2.2539 -1.066407,0 z m -12.224609,1.6601 0,2.6875 9.375,0 0,-2.6875 -9.375,0 z"
       id="rect4395"
       inkscape:export-xdpi="90"
       inkscape:export-ydpi="90"
       inkscape:connector-curvature="0" />
    <path
       style="opacity:1;fill:#000000;fill-opacity:1;stroke:none"
       d="m 45.740234,814.85551 0,2.0781 -2.253906,0 0,1.0644 2.253906,0 0,2.1602 1.105469,0 0,-2.1602 2.164063,0 0,-1.0644 -2.164063,0 0,-2.0781 -1.105469,0 z m 5.21875,1.4629 0,1.7675 -0.496093,-0.3671 0,0.9824 -1.623047,0 0,2.0371 -0.94336,0 0,9.4062 2.6875,0 0,-9.4062 -0.80664,0 0,-1.211 0.685547,0 0,0.9864 0.496093,-0.3985 0,6.1407 2.6875,0 0,-9.9375 -2.6875,0 z m 0.5625,0.6054 1.5,0 0,8.7266 -1.5,0 0,-5.9883 0.75,-0.6035 -0.75,-0.5547 0,-1.5801 z m 2.5,3.7989 0,9.375 2.6875,0 0,-9.375 -2.6875,0 z m -9.1875,0.062 0,9.3125 2.6875,0 0,-9.3125 -2.6875,0 z m 3.625,0.5253 1.5,0 0,8.2618 -1.5,0 0,-8.2618 z"
       id="path4415"
       inkscape:export-xdpi="90"
       inkscape:export-ydpi="90"
       inkscape:connector-curvature="0" />
    <path
       style="opacity:1;fill:#000000;fill-opacity:1;stroke:none"
       d="m 73.041016,814.92971 0,2.0781 -2.253907,0 0,1.0664 2.253907,0 0,2.1602 1.103515,0 0,-2.1602 2.166016,0 0,-1.0664 -2.166016,0 0,-2.0781 -1.103515,0 z m -6.71875,1.5879 0,9.9375 2.6875,0 0,-6.2637 0.509765,0.4102 0,-0.9864 0.6875,0 0,1.3223 -0.822265,0 0,9.4082 2.6875,0 0,-9.4082 -0.927735,0 0,-2.1484 -1.625,0 0,-0.9825 -0.509765,0.377 0,-1.666 -2.6875,0 z m 0.625,0.6054 1.5,0 0,1.4786 -0.736328,0.5449 0.736328,0.5918 0,6.1133 -1.5,0 0,-8.7286 z m 5.5,3.8008 0,9.375 2.6875,0 0,-9.375 -2.6875,0 z m -9.1875,0.062 0,9.3125 2.6875,0 0,-9.3125 -2.6875,0 z m 6.75,0.5254 1.5,0 0,8.2598 -1.5,0 0,-8.2598 z"
       id="rect4455"
       inkscape:export-xdpi="90"
       inkscape:export-ydpi="90"
       inkscape:connector-curvature="0" />
    <path
       style="opacity:1;fill:#000000;fill-opacity:1;stroke:none"
       d="m 2.9199219,840.02931 0,2.6875 9.3125001,0 0,-2.6875 -9.3125001,0 z m 11.7949221,2.6797 -0.753906,0.7539 1.03125,0.9687 -0.996094,0.9336 0.78125,0.7813 0.996094,-0.9336 1,0.9062 0.753906,-0.7539 -1,-0.9062 1,-0.9688 -0.78125,-0.7812 -1,0.9687 -1.03125,-0.9687 z m -11.8417971,0.3828 0,2.6875 9.4082031,0 0,-2.6875 -9.4082031,0 z m 10.8964841,0.4687 -1.115234,0.8672 1.115234,0.8672 0,-1.7344 z m -10.3222654,0.094 8.2597654,0 0,1.5 -8.2597654,0 0,-1.5 z m -0.5273437,2.5 0,2.6875 9.3750001,0 0,-2.6875 -9.3750001,0 z"
       id="rect4477"
       inkscape:export-xdpi="90"
       inkscape:export-ydpi="90"
       inkscape:connector-curvature="0" />
    <path
       style="opacity:1;fill:#000000;fill-opacity:1;stroke:none"
       d="m 28.791016,834.45701 -0.78125,0.7813 0.96875,1 -0.96875,1.0312 0.753906,0.7539 0.96875,-1.0312 0.933594,0.9961 0.78125,-0.7813 -0.933594,-0.9961 0.90625,-1 -0.753906,-0.7539 -0.90625,1 -0.96875,-1 z m 0.07031,3.7559 0.867188,1.1152 0.867187,-1.1152 -1.734375,0 z m 2.59375,1.4746 0,9.375 2.6875,0 0,-9.375 -2.6875,0 z m -3.0625,0.016 0,9.4063 2.6875,0 0,-9.4063 -2.6875,0 z m -3.0625,0.047 0,9.3125 2.6875,0 0,-9.3125 -2.6875,0 z m 3.625,0.5254 1.5,0 0,8.2617 -1.5,0 0,-8.2617 z"
       id="rect4598"
       inkscape:export-xdpi="90"
       inkscape:export-ydpi="90"
       inkscape:connector-curvature="0" />
    <path
       inkscape:connector-curvature="0"
       d="m 70.091654,801.79971 -1.374499,0 -0.546385,-1.4215 -2.501418,0 -0.516505,1.4215 -1.34035,0 2.437389,-6.2578 1.336081,0 z m -2.326404,-2.4758 -0.862264,-2.3222 -0.845189,2.3222 z"
       style="font-style:normal;font-weight:bold;font-size:8.74215698px;line-height:125%;font-family:Sans;letter-spacing:0px;word-spacing:0px;fill:#000000;fill-opacity:1;stroke:none"
       id="path4648" />
    <g
       style="font-style:normal;font-weight:normal;font-size:8.74215698px;line-height:125%;font-family:Sans;letter-spacing:0px;word-spacing:0px;fill:#000000;fill-opacity:1;stroke:none"
       id="g4650"
       transform="translate(1.062501,-239.93749)">
      <path
         inkscape:connector-curvature="0"
         d="m 63.218906,1048.7372 0,-1.1397 3.286846,-4.0595 -2.915475,0 0,-1.0586 4.580241,0 0,0.9818 -3.427711,4.2216 3.560039,0 0,1.0544 z"
         style="font-weight:bold"
         id="path4652" />
    </g>
    <path
       style="fill:#000000;stroke:none"
       d="m 73.37668,798.74231 -2.858334,4.48 2.205395,0 -0.03907,4.5116 1.588015,-0.034 -0.125225,-4.4776 2.185845,0 z"
       id="path4654"
       inkscape:connector-curvature="0"
       sodipodi:nodetypes="cccccccc" />
    <path
       style="fill:#000000;stroke:none"
       d="m 9.429845,853.75166 0.039942,8.14751 -3.9139967,-6.78959 -1.1182848,1.51767 4.273446,7.06916 -0.1198162,1.79724 c -1.3175699,0.42271 -2.3241528,1.09988 -2.4762026,2.47621 0.2419075,1.86083 1.2779198,2.16864 2.3563863,2.35638 0.7207005,-0.0931 1.0892709,-0.58658 1.2780392,-1.31798 l 0.2396325,-5.03228 2.5960183,4.75271 c 0.668133,0.69437 1.22813,0.23616 1.637489,0 0.918593,-0.74151 0.888357,-1.73977 0.758836,-2.79571 -0.218686,-0.53263 -0.878067,-1.31594 -3.235038,-1.23811 l -0.798776,-1.59755 0,-8.1475 -1.5176718,-1.19816 z m 0.31951,8.5469 c 0.270204,0 0.479265,0.21457 0.479265,0.47926 0,0.26469 -0.209061,0.47926 -0.479265,0.47926 -0.2702045,0 -0.479265,-0.21457 -0.479265,-0.47926 0,-0.26469 0.2090605,-0.47926 0.479265,-0.47926 z m 2.995406,3.43473 c 0.565383,-0.0206 1.148239,0.22964 1.477734,0.79877 0.439326,0.75884 -0.359449,1.55755 -0.838714,1.51767 -0.479265,-0.0399 -1.198163,-2.19663 -1.198163,-2.19663 0.16974,-0.0599 0.370682,-0.11298 0.559143,-0.11976 z m -3.9539351,1.0384 c 0,0 0.1935297,2.16827 -0.3594489,2.31645 -0.5529787,0.14816 -2.2175642,-0.838 -0.7987752,-1.71737 0.7666186,-0.47515 1.1582241,-0.59908 1.1582241,-0.59908 z"
       id="path3085"
       inkscape:connector-curvature="0" />
    <g
       id="g3911"
       transform="translate(-0.21857494,0)">
      <path
         inkscape:connector-curvature="0"
         id="rect3098"
         d="m 22.681218,854.78267 0,9.75 9.75,0 0,-9.75 -9.75,0 z m 1.5,1.1875 6.75,0 0,7.375 -6.75,0 0,-7.375 z"
         style="fill:#000000;fill-opacity:1;stroke:none" />
      <path
         sodipodi:nodetypes="cccccccccc"
         inkscape:connector-curvature="0"
         id="path3107"
         d="m 33.60355,854.86404 2.733294,0 0,2.19065 1.238326,0 -1.654911,1.8289 -1.633385,-1.8289 1.24606,0 0,-1.46713 -1.929384,0 z"
         style="fill:#000000;stroke:none" />
      <path
         inkscape:connector-curvature="0"
         id="rect3096"
         d="m 28.014245,859.63363 0,9.75 9.75,0 0,-9.75 -9.75,0 z m 1.40625,1.125 6.875,0 0,1.5 -6.875,0 0,-1.5 z m 0,2.9375 6.875,0 0,1.5 -6.875,0 0,-1.5 z m 0,2.9375 6.875,0 0,1.5 -6.875,0 0,-1.5 z"
         style="fill:#ffffff;fill-opacity:1;stroke:#000000;stroke-width:0.5;stroke-miterlimit:4;stroke-dasharray:none" />
    </g>
    <g
       id="g3906"
       transform="translate(1.0606601,0.35355336)">
      <path
         style="fill:#000000;fill-opacity:1;stroke:none"
         d="m 46.634458,859.73242 0,9.75 9.75,0 0,-9.75 -9.75,0 z m 1.5,1.1875 6.75,0 0,7.375 -6.75,0 0,-7.375 z"
         id="path3105"
         inkscape:connector-curvature="0" />
      <path
         style="fill:#000000;stroke:none"
         d="m 55.98391,858.50607 0,-2.73329 -2.19065,0 0,-1.23833 -1.8289,1.65492 1.8289,1.63338 0,-1.24606 1.46713,0 0,1.92938 z"
         id="path3109"
         inkscape:connector-curvature="0"
         sodipodi:nodetypes="cccccccccc" />
      <path
         style="fill:#ffffff;fill-opacity:1;stroke:#000000;stroke-width:0.5;stroke-miterlimit:4;stroke-dasharray:none"
         d="m 41.360884,854.50711 0,9.75 9.75,0 0,-9.75 -9.75,0 z m 1.40625,1.125 6.875,0 0,1.5 -6.875,0 0,-1.5 z m 0,2.9375 6.875,0 0,1.5 -6.875,0 0,-1.5 z m 0,2.9375 6.875,0 0,1.5 -6.875,0 0,-1.5 z"
         id="path3136"
         inkscape:connector-curvature="0" />
    </g>
  </g>
</svg>
