<?xml version="1.0" encoding="UTF-8" standalone="no"?>
<!-- Created with Inkscape (http://www.inkscape.org/) -->

<svg
   xmlns:dc="http://purl.org/dc/elements/1.1/"
   xmlns:cc="http://creativecommons.org/ns#"
   xmlns:rdf="http://www.w3.org/1999/02/22-rdf-syntax-ns#"
   xmlns:svg="http://www.w3.org/2000/svg"
   xmlns="http://www.w3.org/2000/svg"
   xmlns:sodipodi="http://sodipodi.sourceforge.net/DTD/sodipodi-0.dtd"
   xmlns:inkscape="http://www.inkscape.org/namespaces/inkscape"
   width="512"
   height="32"
   id="svg2"
   version="1.1"
   inkscape:version="0.48.4 r9939"
   sodipodi:docname="mime.svg"
   inkscape:export-filename="C:\Users\andrei\Desktop\wysiwyg-canvas\css\mime.png"
   inkscape:export-xdpi="90"
   inkscape:export-ydpi="90">
  <defs
     id="defs4" />
  <sodipodi:namedview
     id="base"
     pagecolor="#ffffff"
     bordercolor="#666666"
     borderopacity="1.0"
     inkscape:pageopacity="0.0"
     inkscape:pageshadow="2"
     inkscape:zoom="2.8"
     inkscape:cx="16.235602"
     inkscape:cy="38.504758"
     inkscape:document-units="px"
     inkscape:current-layer="layer1"
     showgrid="false"
     showguides="true"
     inkscape:guide-bbox="true"
     inkscape:window-width="1366"
     inkscape:window-height="706"
     inkscape:window-x="-8"
     inkscape:window-y="-8"
     inkscape:window-maximized="1">
    <sodipodi:guide
       orientation="1,0"
       position="0,21.970818"
       id="guide3890" />
    <sodipodi:guide
       orientation="1,0"
       position="32,29.294"
       id="guide3892" />
    <sodipodi:guide
       orientation="1,0"
       position="64,7.8286822"
       id="guide3894" />
    <sodipodi:guide
       orientation="1,0"
       position="96,26.516504"
       id="guide3896" />
    <sodipodi:guide
       orientation="1,0"
       position="128,10.101525"
       id="guide3898" />
    <sodipodi:guide
       orientation="1,0"
       position="160,1.5152288"
       id="guide3900" />
    <sodipodi:guide
       orientation="0,1"
       position="96,0"
       id="guide3902" />
    <sodipodi:guide
       orientation="0,1"
       position="81.31728,32"
       id="guide3904" />
  </sodipodi:namedview>
  <metadata
     id="metadata7">
    <rdf:RDF>
      <cc:Work
         rdf:about="">
        <dc:format>image/svg+xml</dc:format>
        <dc:type
           rdf:resource="http://purl.org/dc/dcmitype/StillImage" />
        <dc:title></dc:title>
      </cc:Work>
    </rdf:RDF>
  </metadata>
  <g
     inkscape:label="Layer 1"
     inkscape:groupmode="layer"
     id="layer1"
     transform="translate(0,-1020.3622)">
    <path
       style="fill:#333333;stroke:none"
       d="m 4.6539049,1023.4625 -3.96875004,3.75 0,21.1561 1.09375004,1.125 29.0312501,0 0.84375,-1.5 0,-18.625 -2.03125,-2.0311 -12.125,0 -3.875,-3.8751 z m -2.723214,3.3973 14.4017861,0 0.401786,0.4176 -15.2946441,0 z"
       id="path2996"
       inkscape:connector-curvature="0"
       sodipodi:nodetypes="cccccccccccccccc" />
    <path
       style="fill:#333333;stroke:none"
       d="m 54.371049,1020.8843 -18.921875,0 0,31.1875 25,0 0,-25.1562 z m 0,1.4688 4.640625,4.5625 -4.640625,0 z"
       id="path3003"
       inkscape:connector-curvature="0"
       sodipodi:nodetypes="cccccccccc" />
    <path
       style="fill:#333333;stroke:none"
       d="m 99.008464,1020.8843 0,31.1875 24.999986,0 0,-25.1563 -6.0625,-6.0312 z m 18.937486,1.4688 4.625,4.5624 -4.625,0 z m -3.94003,5.7187 0.625,1.0625 -10.03125,6.7812 15.59375,0 0,12.9688 -17.5,0 0,-12.9688 z m -9.8125,9.5313 0,9.5937 14.34375,0 0,-9.5937 z m 3.75,2.875 c 0.42993,0 0.77162,0.1633 1.03125,0.4374 0.21392,0.2245 0.34374,0.4677 0.34375,0.75 -1e-5,0.4011 -0.21801,0.73 -0.65625,0.9688 0.26169,0.056 0.46818,0.1797 0.625,0.375 0.15681,0.1952 0.21874,0.4113 0.21875,0.6875 -1e-5,0.4009 -0.14465,0.7486 -0.4375,1.0313 -0.29286,0.2824 -0.65759,0.4374 -1.09375,0.4374 -0.41333,0 -0.75917,-0.137 -1.03125,-0.375 -0.27209,-0.2377 -0.42514,-0.5534 -0.46875,-0.9374 l 0.84375,-0.094 c 0.027,0.216 0.10036,0.3858 0.21875,0.5 0.11838,0.1143 0.26926,0.1562 0.4375,0.1562 0.18069,0 0.34516,-0.051 0.46875,-0.1874 0.12357,-0.1372 0.18749,-0.3298 0.1875,-0.5626 -1e-5,-0.2201 -0.0691,-0.4024 -0.1875,-0.5312 -0.11839,-0.1288 -0.26719,-0.1874 -0.4375,-0.1875 -0.11216,10e-5 -0.25048,0.02 -0.40625,0.062 l 0.0937,-0.7188 c 0.23677,0.01 0.43788,-0.047 0.5625,-0.1562 0.12461,-0.109 0.18749,-0.2256 0.1875,-0.4062 -1e-5,-0.1539 -0.0649,-0.2837 -0.15625,-0.375 -0.0914,-0.091 -0.19214,-0.1563 -0.34375,-0.1563 -0.14955,0 -0.30033,0.052 -0.40625,0.1563 -0.10593,0.1037 -0.16466,0.2693 -0.1875,0.4687 l -0.8125,-0.125 c 0.0561,-0.2762 0.1368,-0.5224 0.25,-0.6875 0.11319,-0.1651 0.29749,-0.2805 0.5,-0.375 0.2025,-0.094 0.40493,-0.1562 0.65625,-0.1562 z m 3.625,0 c 0.4507,0 0.80495,0.1318 1.0625,0.375 0.25754,0.2427 0.37499,0.5448 0.375,0.9062 -1e-5,0.2057 -0.02,0.4077 -0.0937,0.5938 -0.0737,0.1856 -0.18383,0.3901 -0.34375,0.5937 -0.10593,0.135 -0.31752,0.3092 -0.59375,0.5625 -0.27624,0.2534 -0.42627,0.4169 -0.5,0.5 -0.0737,0.083 -0.14181,0.171 -0.1875,0.25 l 1.71875,0 0,0.8125 -3.0625,0 c 0.0332,-0.3074 0.14634,-0.5998 0.3125,-0.875 0.16615,-0.2752 0.47858,-0.639 0.96875,-1.0937 0.39462,-0.3678 0.66068,-0.6194 0.75,-0.75 0.12046,-0.1809 0.15624,-0.3547 0.15625,-0.5313 -1e-5,-0.1952 -0.0514,-0.3327 -0.15625,-0.4375 -0.10489,-0.1049 -0.25265,-0.1562 -0.4375,-0.1562 -0.18278,0 -0.3295,0.046 -0.4375,0.1562 -0.10801,0.1101 -0.17089,0.2758 -0.1875,0.5312 l -0.84375,-0.062 c 0.0519,-0.4819 0.19458,-0.8526 0.46875,-1.0626 0.27416,-0.2096 0.62,-0.3124 1.03125,-0.3124 z m 3.5625,0 0.71875,0 0,4.5937 -0.875,0 0,-3.2813 c -0.31986,0.2994 -0.69091,0.513 -1.125,0.6563 l 0,-0.8125 c 0.22846,-0.075 0.48206,-0.1978 0.75,-0.4062 0.26793,-0.209 0.43155,-0.472 0.53125,-0.75 z"
       id="path3008"
       inkscape:connector-curvature="0"
       sodipodi:nodetypes="cccccccccccccccccccccccsccccccsccccscccccccccscccscssccccccccccsccccsscccsccccccccc" />
    <path
       style="fill:#333333;stroke:none"
       d="m 130.7881,1020.8843 0,31.1875 25,0 0,-25.1562 -6.09375,-6.0313 -18.90625,0 z m 18.90625,1.4687 4.65625,4.5626 -4.65625,0 0,-4.5626 z m -4.34375,3.5626 c 1.52812,7.266 1.74998,15.767 0,23.8437 l -7.96875,-7.9063 -3.3125,0 c -0.53472,-2.4298 -0.88383,-4.9548 0,-8.0937 l 3.375,0 7.90625,-7.8437 z m -0.75,3.4062 c -1.08442,5.8503 -1.06947,11.6092 0.0625,17.375 0.8957,-5.6757 0.6996,-11.4788 -0.0625,-17.375 z m -1.46875,0.875 -4.21875,4.4062 c -0.61789,2.0777 -0.62425,4.1843 0,6.375 l 4.125,4.4688 c -0.71413,-4.334 -1.24335,-8.2425 0.0937,-15.25 z m 9.90625,2.3438 0.40625,0.75 -5.75,2.8437 -0.4375,-0.7813 5.78125,-2.8124 z m -5.65625,5.4062 6.375,0.094 0,0.8437 -6.375,0 0,-0.9375 z m 0.21875,2.6875 5.75,2.8437 -0.375,0.75 -5.75,-2.8124 0.375,-0.7813 z"
       id="path3010"
       inkscape:connector-curvature="0" />
    <path
       style="fill:#333333;stroke:none"
       d="m 67.228814,1020.8843 0,31.1875 25.000005,0 0,-25.1562 -6.09375,-6.0313 -18.906255,0 z m 18.906255,1.4687 4.65625,4.5626 -4.65625,0 0,-4.5626 z m -16.03125,8.5 19.46875,0.1876 0,17.8437 -19.46875,0 0,-18.0313 z m 1.53125,1.5626 0,8.2812 4.53125,-5.0312 6.15625,6.4687 3.9375,-3.3437 1.75,1.9374 0,-8.1562 -16.375,-0.1562 z m 13.3125,1.2812 c 0.86294,0 1.5625,0.6996 1.5625,1.5625 0,0.8629 -0.69956,1.5625 -1.5625,1.5625 -0.86295,0 -1.5625,-0.6996 -1.5625,-1.5625 0,-0.8629 0.69955,-1.5625 1.5625,-1.5625 z"
       id="path3012"
       inkscape:connector-curvature="0" />
  </g>
</svg>
