<?xml version="1.0" encoding="UTF-8" standalone="no"?>
<!-- Created with Inkscape (http://www.inkscape.org/) -->

<svg
   xmlns:dc="http://purl.org/dc/elements/1.1/"
   xmlns:cc="http://creativecommons.org/ns#"
   xmlns:rdf="http://www.w3.org/1999/02/22-rdf-syntax-ns#"
   xmlns:svg="http://www.w3.org/2000/svg"
   xmlns="http://www.w3.org/2000/svg"
   xmlns:sodipodi="http://sodipodi.sourceforge.net/DTD/sodipodi-0.dtd"
   xmlns:inkscape="http://www.inkscape.org/namespaces/inkscape"
   width="744.09448819"
   height="1052.3622047"
   id="svg2"
   version="1.1"
   inkscape:version="0.48.4 r9939"
   sodipodi:docname="ms97-icons.svg">
  <defs
     id="defs4" />
  <sodipodi:namedview
     id="base"
     pagecolor="#ffffff"
     bordercolor="#666666"
     borderopacity="1.0"
     inkscape:pageopacity="0.0"
     inkscape:pageshadow="2"
     inkscape:zoom="2.8284271"
     inkscape:cx="44.590691"
     inkscape:cy="67.28112"
     inkscape:document-units="px"
     inkscape:current-layer="layer1"
     showgrid="false"
     inkscape:window-width="1366"
     inkscape:window-height="706"
     inkscape:window-x="-8"
     inkscape:window-y="-8"
     inkscape:window-maximized="1"
     showguides="true"
     inkscape:guide-bbox="true">
    <sodipodi:guide
       orientation="1,0"
       position="0,0"
       id="guide3492" />
    <sodipodi:guide
       orientation="1,0"
       position="20,918.53171"
       id="guide3494" />
    <sodipodi:guide
       orientation="1,0"
       position="40,908.63221"
       id="guide3496" />
    <sodipodi:guide
       orientation="1,0"
       position="60,897.3185"
       id="guide3498" />
    <sodipodi:guide
       orientation="1,0"
       position="80,888.12611"
       id="guide3500" />
    <sodipodi:guide
       orientation="0,1"
       position="144.24978,0"
       id="guide3502" />
    <sodipodi:guide
       orientation="0,1"
       position="149.19953,20"
       id="guide3504" />
    <sodipodi:guide
       orientation="0,1"
       position="122.32947,40"
       id="guide3506" />
    <sodipodi:guide
       orientation="0,1"
       position="102.53048,60"
       id="guide3508" />
    <sodipodi:guide
       orientation="0,1"
       position="112.42998,80"
       id="guide3510" />
    <sodipodi:guide
       orientation="0,1"
       position="133.64318,100"
       id="guide3512" />
    <sodipodi:guide
       orientation="0,1"
       position="146.3711,120"
       id="guide3514" />
    <sodipodi:guide
       orientation="0,1"
       position="118.79394,140"
       id="guide3516" />
    <sodipodi:guide
       orientation="0,1"
       position="139.30004,160"
       id="guide3518" />
    <sodipodi:guide
       orientation="0,1"
       position="118.08683,180"
       id="guide3520" />
    <sodipodi:guide
       orientation="0,1"
       position="116.67262,200"
       id="guide3522" />
  </sodipodi:namedview>
  <metadata
     id="metadata7">
    <rdf:RDF>
      <cc:Work
         rdf:about="">
        <dc:format>image/svg+xml</dc:format>
        <dc:type
           rdf:resource="http://purl.org/dc/dcmitype/StillImage" />
        <dc:title></dc:title>
      </cc:Work>
    </rdf:RDF>
  </metadata>
  <g
     inkscape:label="Layer 1"
     inkscape:groupmode="layer"
     id="layer1">
    <rect
       style="fill:none;stroke:none"
       id="rect3524"
       width="80"
       height="120.15254"
       x="0"
       y="932.36218"
       inkscape:export-filename="C:\Users\andrei\Desktop\htmledd\css\icons.png"
       inkscape:export-xdpi="90"
       inkscape:export-ydpi="90" />
    <path
       style="fill:#000000;stroke:none"
       d="m 5.3011362,1018.2648 0,1 1,0 0,6.9999 -1,0 0,1 7.9999988,0 0,-1 1,0 0,-2.9686 -1,0 0,-1.0313 1,0 0,-2.9687 -0.96875,0 0,-1.0313 -8.0312488,0 z m 5.9999988,1 0,3 -1.9999988,0 0,-2.9687 1.9999988,-0.031 z m 0,4 0,2.9999 -1.9999988,0 0,-2.9686 1.9999988,-0.031 z"
       id="path2996"
       inkscape:connector-curvature="0"
       inkscape:export-filename="C:\Users\andrei\Desktop\htmledd\css\icons.png"
       inkscape:export-xdpi="90"
       inkscape:export-ydpi="90" />
    <path
       style="fill:#000000;stroke:none"
       d="m 30.728996,1019.2268 -3.70535,7.0535 -1.54017,0 0,0.9598 5.40178,0 0,-0.9598 -1.31697,0 3.683043,-7.0535 1.18304,0 0,-0.9375 -4.910723,0 0,0.9598 z"
       id="path3004"
       inkscape:connector-curvature="0"
       sodipodi:nodetypes="ccccccccccccc"
       inkscape:export-filename="C:\Users\andrei\Desktop\htmledd\css\icons.png"
       inkscape:export-xdpi="90"
       inkscape:export-ydpi="90" />
    <path
       style="fill:#000000;stroke:none"
       d="m 45.204699,1017.9993 0,1 1,0 0,7.0312 0.96875,0 0,0.9687 4.96875,0 0,-0.9375 1.03125,0 0,-6.9999 1.03125,0 0,-0.9687 -4,0 0,0.9375 0.96875,0 0,6.0312 -0.9375,0.9374 -0.96875,0 -1.03125,-1.0311 0,-5.9375 0.9375,0 0,-0.9688 -3.96875,-0.062 z m 8.96875,10.0312 -9,0.031 0,0.9687 9,0 0,-1 z"
       id="path3008"
       inkscape:connector-curvature="0"
       inkscape:export-filename="C:\Users\andrei\Desktop\htmledd\css\icons.png"
       inkscape:export-xdpi="90"
       inkscape:export-ydpi="90" />
    <path
       style="fill:#000000;stroke:none"
       d="m 2.8167612,997.69946 0,1 13.9687498,0 0,-1 -13.9687498,0 z m 0,2 0,1.00004 9.9687498,0 0,-1.00004 -9.9687498,0 z m 0,2.00004 0,1 13.9687498,0 0,-1 -13.9687498,0 z m 0,2 0,1 9.9687498,0 0,-1 -9.9687498,0 z m 0,2 0,1 13.9687498,0 0,-1 -13.9687498,0 z m 0,2 0,1 9.9687498,0 0,-1 -9.9687498,0 z"
       id="path3013"
       inkscape:connector-curvature="0"
       inkscape:export-filename="C:\Users\andrei\Desktop\htmledd\css\icons.png"
       inkscape:export-xdpi="90"
       inkscape:export-ydpi="90" />
    <path
       id="path3026"
       d="m 36.943299,997.69936 0,1 -13.968753,0 0,-1 13.968753,0 z m 0,2 0,1.00004 -9.968753,0 0,-1.00004 9.968753,0 z m 0,2.00004 0,1 -13.968753,0 0,-1 13.968753,0 z m 0,2 0,1 -9.968753,0 0,-1 9.968753,0 z m 0,2 0,1.0001 -13.968753,0 0,-1 13.968753,0 z m 0,2.0001 0,1 -9.968753,0 0,-1 9.968753,0 z"
       style="fill:#000000;stroke:none"
       inkscape:connector-curvature="0"
       inkscape:export-filename="C:\Users\andrei\Desktop\htmledd\css\icons.png"
       inkscape:export-xdpi="90"
       inkscape:export-ydpi="90" />
    <g
       id="g3042"
       transform="translate(-437.12733,663.49529)"
       inkscape:export-filename="C:\Users\andrei\Desktop\htmledd\css\icons.png"
       inkscape:export-xdpi="90"
       inkscape:export-ydpi="90">
      <path
         id="path3040"
         d="m 493.80078,334.20412 0,1 -13.96875,0 0,-1 13.96875,0 z"
         style="fill:#000000;stroke:none"
         inkscape:connector-curvature="0" />
      <path
         inkscape:connector-curvature="0"
         id="path3038"
         d="m 491.80078,336.20412 0,1 -9.96875,0 0,-1 9.96875,0 z"
         style="fill:#000000;stroke:none" />
      <path
         id="path3036"
         d="m 493.80078,338.20412 0,1 -13.96875,0 0,-1 13.96875,0 z"
         style="fill:#000000;stroke:none"
         inkscape:connector-curvature="0" />
      <path
         inkscape:connector-curvature="0"
         id="path3034"
         d="m 491.80078,340.20412 0,1 -9.96875,0 0,-1 9.96875,0 z"
         style="fill:#000000;stroke:none" />
      <path
         id="path3032"
         d="m 493.80078,342.20412 0,1 -13.96875,0 0,-1 13.96875,0 z"
         style="fill:#000000;stroke:none"
         inkscape:connector-curvature="0" />
      <path
         inkscape:connector-curvature="0"
         id="path3028"
         d="m 491.80078,344.20412 0,1 -9.96875,0 0,-1 9.96875,0 z"
         style="fill:#000000;stroke:none" />
    </g>
    <g
       id="g3064"
       transform="translate(-437.17614,663.85243)"
       inkscape:export-filename="C:\Users\andrei\Desktop\htmledd\css\icons.png"
       inkscape:export-xdpi="90"
       inkscape:export-ydpi="90">
      <path
         id="path3062"
         d="m 513.80078,333.84698 0,1 -13.96875,0 0,-1 13.96875,0 z"
         style="fill:#000000;stroke:none"
         inkscape:connector-curvature="0" />
      <path
         sodipodi:nodetypes="ccccc"
         inkscape:connector-curvature="0"
         id="path3060"
         d="m 513.80078,335.84698 0,1 -13.96875,0 0,-1 z"
         style="fill:#000000;stroke:none" />
      <path
         id="path3058"
         d="m 513.80078,337.84698 0,1 -13.96875,0 0,-1 13.96875,0 z"
         style="fill:#000000;stroke:none"
         inkscape:connector-curvature="0" />
      <path
         sodipodi:nodetypes="ccccc"
         inkscape:connector-curvature="0"
         id="path3056"
         d="m 513.80078,339.84698 0,1 -13.96875,0 0,-1 z"
         style="fill:#000000;stroke:none" />
      <path
         id="path3054"
         d="m 513.80078,341.84698 0,1 -13.96875,0 0,-1 13.96875,0 z"
         style="fill:#000000;stroke:none"
         inkscape:connector-curvature="0" />
      <path
         sodipodi:nodetypes="ccccc"
         inkscape:connector-curvature="0"
         id="path3050"
         d="m 513.80078,343.84698 0,1 -13.96875,0 0,-1 z"
         style="fill:#000000;stroke:none" />
    </g>
    <g
       id="g3084"
       transform="translate(-545.19877,522.37418)"
       inkscape:export-filename="C:\Users\andrei\Desktop\htmledd\css\icons.png"
       inkscape:export-xdpi="90"
       inkscape:export-ydpi="90">
      <path
         inkscape:connector-curvature="0"
         id="path3072"
         d="m 548.00776,454.85695 1.01015,-1.01015 1.04172,0 0,2.90419 0.91545,0 0,0.94701 -2.93576,0 0,-0.78918 0.91546,0 0,-1.10485 -0.94702,0 z"
         style="fill:#000080;stroke:none" />
      <path
         inkscape:connector-curvature="0"
         id="path3074"
         d="m 548.07089,459.78144 0,-0.94701 1.89404,0 1.04172,1.04172 0,0.78918 -1.08907,1.08907 1.0575,0 0,1.02593 -2.90419,0 0,-0.91545 0.88389,0 1.04172,-1.04172 0,-0.97858 z"
         style="fill:#000080;stroke:none" />
      <path
         inkscape:connector-curvature="0"
         id="path3076"
         d="m 548.03932,463.85362 0,0.97859 0.91546,0 1.01015,1.01015 0,0.94702 -1.98874,0 0,0.94702 1.98874,0 0.9628,-0.96281 0,-0.93123 -0.93913,-0.93913 0.98648,0 0,-1.01804 z"
         style="fill:#000080;stroke:none" />
      <path
         inkscape:connector-curvature="0"
         id="path3078"
         d="m 552.99539,454.79382 0,1.01015 9.02823,0 0,-0.97859 z"
         style="fill:#000000;stroke:none" />
      <path
         style="fill:#000000;stroke:none"
         d="m 552.99539,459.78358 0,1.01015 9.02823,0 0,-0.97859 z"
         id="path3080"
         inkscape:connector-curvature="0" />
      <path
         inkscape:connector-curvature="0"
         id="path3082"
         d="m 552.99539,464.73068 0,1.01015 9.02823,0 0,-0.97859 z"
         style="fill:#000000;stroke:none" />
    </g>
    <g
       id="g3104"
       transform="translate(-548.02196,522.96146)"
       inkscape:export-filename="C:\Users\andrei\Desktop\htmledd\css\icons.png"
       inkscape:export-xdpi="90"
       inkscape:export-ydpi="90">
      <path
         inkscape:connector-curvature="0"
         id="path3092"
         d="m 570.98873,453.78366 0,2.90419 3.03046,0 0,-2.90419 z"
         style="fill:#000080;fill-opacity:1;stroke:none" />
      <path
         inkscape:connector-curvature="0"
         id="path3094"
         d="m 575.97636,454.79382 0,1.01015 8.99667,0 0,-1.02594 z"
         style="fill:#000000;stroke:none" />
      <path
         style="fill:#000080;fill-opacity:1;stroke:none"
         d="m 570.98873,458.7211 0,2.90419 3.03046,0 0,-2.90419 z"
         id="path3096"
         inkscape:connector-curvature="0" />
      <path
         style="fill:#000000;stroke:none"
         d="m 575.97636,459.73126 0,1.01015 8.99667,0 0,-1.02594 z"
         id="path3098"
         inkscape:connector-curvature="0" />
      <path
         inkscape:connector-curvature="0"
         id="path3100"
         d="m 570.98873,463.72078 0,2.90419 3.03046,0 0,-2.90419 z"
         style="fill:#000080;fill-opacity:1;stroke:none" />
      <path
         inkscape:connector-curvature="0"
         id="path3102"
         d="m 575.97636,464.73094 0,1.01015 8.99667,0 0,-1.02594 z"
         style="fill:#000000;stroke:none" />
    </g>
    <g
       id="g3134"
       transform="translate(-552.26262,522.85911)"
       inkscape:export-filename="C:\Users\andrei\Desktop\htmledd\css\icons.png"
       inkscape:export-xdpi="90"
       inkscape:export-ydpi="90">
      <path
         inkscape:connector-curvature="0"
         id="path3112"
         d="m 596.93702,456.84569 -2.99889,2.39911 3.06203,2.62008 0,-2.05187 1.95717,0 0,-0.97858 -1.98874,0 z"
         style="fill:#000080;fill-opacity:1;stroke:none" />
      <path
         inkscape:connector-curvature="0"
         id="path3114"
         d="m 595.99,454.76225 0,1.01015 4.00905,0 0,-0.97858 z"
         style="fill:#000000;stroke:none" />
      <path
         style="fill:#000000;stroke:none"
         d="m 595.99,462.78034 0,1.01015 4.00905,0 0,-0.97858 z"
         id="path3116"
         inkscape:connector-curvature="0" />
      <path
         inkscape:connector-curvature="0"
         id="path3118"
         d="m 595.99,464.76908 0,1.01015 4.00905,0 0,-0.97858 z"
         style="fill:#000000;stroke:none" />
      <path
         sodipodi:nodetypes="ccccc"
         style="fill:#000000;stroke:none"
         d="m 601.04076,464.76908 0,1.01015 1.94592,0 0,-0.97858 z"
         id="path3120"
         inkscape:connector-curvature="0" />
      <path
         inkscape:connector-curvature="0"
         id="path3122"
         d="m 601.00919,462.81191 0,1.01015 8.95607,0 0,-0.97858 z"
         style="fill:#000000;stroke:none"
         sodipodi:nodetypes="ccccc" />
      <path
         sodipodi:nodetypes="ccccc"
         style="fill:#000000;stroke:none"
         d="m 601.00919,459.78119 0,1.98874 5.99779,0 0,-1.95717 z"
         id="path3124"
         inkscape:connector-curvature="0" />
      <path
         inkscape:connector-curvature="0"
         id="path3126"
         d="m 601.00919,456.79143 0,1.98874 8.95607,0 0,-1.95717 z"
         style="fill:#000000;stroke:none"
         sodipodi:nodetypes="ccccc" />
      <path
         sodipodi:nodetypes="ccccc"
         style="fill:#000000;stroke:none"
         d="m 601.00919,454.79143 0,0.96733 8.95607,0 0,-0.93576 z"
         id="path3128"
         inkscape:connector-curvature="0" />
      <path
         inkscape:connector-curvature="0"
         id="path3130"
         d="m 601.00919,452.823 0,0.96733 0.95607,0 0,-0.93576 z"
         style="fill:#000000;stroke:none"
         sodipodi:nodetypes="ccccc" />
      <path
         sodipodi:nodetypes="ccccc"
         style="fill:#000000;stroke:none"
         d="m 601.00919,466.823 0,0.96733 0.95607,0 0,-0.93576 z"
         id="path3132"
         inkscape:connector-curvature="0" />
    </g>
    <g
       id="g3182"
       transform="translate(-555.34714,522.81448)"
       inkscape:export-filename="C:\Users\andrei\Desktop\htmledd\css\icons.png"
       inkscape:export-xdpi="90"
       inkscape:export-ydpi="90">
      <path
         style="fill:#000080;fill-opacity:1;stroke:none"
         d="m 618.99416,456.89033 2.99889,2.39911 -3.06204,2.62008 0,-2.05187 -1.95717,0 0,-0.97858 1.98874,0 z"
         id="path3149"
         inkscape:connector-curvature="0" />
      <path
         style="fill:#000000;stroke:none"
         d="m 619.02571,454.80689 0,1.01015 4.00905,0 0,-0.97858 z"
         id="path3151"
         inkscape:connector-curvature="0" />
      <path
         inkscape:connector-curvature="0"
         id="path3153"
         d="m 619.02571,462.82498 0,1.01015 4.00905,0 0,-0.97858 z"
         style="fill:#000000;stroke:none" />
      <path
         style="fill:#000000;stroke:none"
         d="m 619.02571,464.81372 0,1.01015 4.00905,0 0,-0.97858 z"
         id="path3155"
         inkscape:connector-curvature="0" />
      <path
         inkscape:connector-curvature="0"
         id="path3157"
         d="m 624.07647,464.81372 0,1.01015 1.94592,0 0,-0.97858 z"
         style="fill:#000000;stroke:none"
         sodipodi:nodetypes="ccccc" />
      <path
         sodipodi:nodetypes="ccccc"
         style="fill:#000000;stroke:none"
         d="m 624.0449,462.85655 0,1.01015 8.95607,0 0,-0.97858 z"
         id="path3159"
         inkscape:connector-curvature="0" />
      <path
         inkscape:connector-curvature="0"
         id="path3161"
         d="m 624.0449,459.82583 0,1.98874 5.99779,0 0,-1.95717 z"
         style="fill:#000000;stroke:none"
         sodipodi:nodetypes="ccccc" />
      <path
         sodipodi:nodetypes="ccccc"
         style="fill:#000000;stroke:none"
         d="m 624.0449,456.83607 0,1.98874 8.95607,0 0,-1.95717 z"
         id="path3163"
         inkscape:connector-curvature="0" />
      <path
         inkscape:connector-curvature="0"
         id="path3165"
         d="m 624.0449,454.83607 0,0.96733 8.95607,0 0,-0.93576 z"
         style="fill:#000000;stroke:none"
         sodipodi:nodetypes="ccccc" />
      <path
         sodipodi:nodetypes="ccccc"
         style="fill:#000000;stroke:none"
         d="m 624.0449,452.86764 0,0.96733 0.95607,0 0,-0.93576 z"
         id="path3167"
         inkscape:connector-curvature="0" />
      <path
         inkscape:connector-curvature="0"
         id="path3169"
         d="m 624.0449,466.86764 0,0.96733 0.95607,0 0,-0.93576 z"
         style="fill:#000000;stroke:none"
         sodipodi:nodetypes="ccccc" />
    </g>
    <g
       id="g3218"
       transform="translate(-584.87536,561.53034)"
       inkscape:export-filename="C:\Users\andrei\Desktop\htmledd\css\icons.png"
       inkscape:export-xdpi="90"
       inkscape:export-ydpi="90">
      <path
         id="path3195"
         d="m 648,454.71875 0,13.03125 13.03125,0 0,-12.96875 L 648,454.71875 z m 1.03125,1.09375 10.9375,0 0,10.96875 -10.9375,0 0,-10.96875 z"
         style="fill:#000000;stroke:none"
         inkscape:connector-curvature="0" />
      <path
         inkscape:connector-curvature="0"
         id="path3200"
         d="m 654.01064,456.81412 0,0.97859 0.97859,0 0,-0.97859 z"
         style="fill:#808080;fill-opacity:1;stroke:none" />
      <path
         style="fill:#808080;fill-opacity:1;stroke:none"
         d="m 654.01064,458.81412 0,0.97859 0.97859,0 0,-0.97859 z"
         id="path3202"
         inkscape:connector-curvature="0" />
      <path
         inkscape:connector-curvature="0"
         id="path3204"
         d="m 654.01064,460.81412 0,0.97859 0.97859,0 0,-0.97859 z"
         style="fill:#808080;fill-opacity:1;stroke:none" />
      <path
         style="fill:#808080;fill-opacity:1;stroke:none"
         d="m 654.01064,462.81412 0,0.97859 0.97859,0 0,-0.97859 z"
         id="path3206"
         inkscape:connector-curvature="0" />
      <path
         inkscape:connector-curvature="0"
         id="path3208"
         d="m 654.01064,464.81412 0,0.97859 0.97859,0 0,-0.97859 z"
         style="fill:#808080;fill-opacity:1;stroke:none" />
      <path
         style="fill:#808080;fill-opacity:1;stroke:none"
         d="m 656.01064,460.81412 0,0.97859 0.97859,0 0,-0.97859 z"
         id="path3210"
         inkscape:connector-curvature="0" />
      <path
         inkscape:connector-curvature="0"
         id="path3212"
         d="m 658.01064,460.81412 0,0.97859 0.97859,0 0,-0.97859 z"
         style="fill:#808080;fill-opacity:1;stroke:none" />
      <path
         style="fill:#808080;fill-opacity:1;stroke:none"
         d="m 652.01064,460.81412 0,0.97859 0.97859,0 0,-0.97859 z"
         id="path3214"
         inkscape:connector-curvature="0" />
      <path
         inkscape:connector-curvature="0"
         id="path3216"
         d="m 650.01064,460.81412 0,0.97859 0.97859,0 0,-0.97859 z"
         style="fill:#808080;fill-opacity:1;stroke:none" />
    </g>
    <g
       id="g3247"
       transform="translate(-678.26186,503.58348)"
       inkscape:export-filename="C:\Users\andrei\Desktop\htmledd\css\icons.png"
       inkscape:export-xdpi="90"
       inkscape:export-ydpi="90">
      <path
         sodipodi:nodetypes="ccccccccccccccccc"
         inkscape:connector-curvature="0"
         id="path3230"
         d="m 690.87595,453.84438 -8.7822,8.75853 10e-4,1.21022 4.3125,0 7.625,-7.625 0,-0.78125 -1.5625,-1.5625 -1.59375,0 z m 0.50825,0.90688 0.52332,0.0631 0.77585,0.74429 0.0631,0.56155 -6.97478,6.88039 -2.0157,0 -6.4e-4,-0.74683 z"
         style="fill:#000000;stroke:none" />
      <path
         inkscape:connector-curvature="0"
         id="path3235"
         d="m 685.28591,460.77581 1.72547,0.9962 -1.0315,1.03149 -2.23287,0 0,-0.54403 z"
         style="fill:#ffffff;stroke:none" />
      <path
         inkscape:connector-curvature="0"
         id="path3237"
         d="m 685.26224,460.77581 1.70813,0.98619 0,-2.67504 z"
         style="fill:#0000ff;fill-opacity:1;stroke:none" />
      <path
         inkscape:connector-curvature="0"
         id="path3239"
         d="m 687.01422,459.07118 0,2.71479 4.96395,-4.96396 -0.97069,0 -3.01862,3.01862 z"
         style="fill:#008000;fill-opacity:1;stroke:none" />
      <path
         inkscape:connector-curvature="0"
         id="path3241"
         d="m 687.04579,459.0554 0.87599,0.87599 3.11727,-3.11727 0,-0.97858 -0.71027,0 z"
         style="fill:#ffffff;stroke:none" />
      <path
         inkscape:connector-curvature="0"
         id="path3243"
         d="m 690.26565,455.83554 0.82075,0.99436 0.91545,0 0,-0.97858 -0.85232,-0.85232 z"
         style="fill:#000000;stroke:none" />
      <path
         inkscape:connector-curvature="0"
         id="path3245"
         d="m 691.98606,454.92008 0,1.97296 0.74183,-0.74183 0,-0.53665 z"
         style="fill:#0000ff;stroke:none" />
    </g>
    <path
       style="fill:#000080;fill-opacity:1;stroke:none"
       d="m 29.990966,956.88098 -5.28125,10 -1.15625,0 0,1.0313 3.9375,0 0,-1.0322 -1.5625,0 1.59375,-2.9678 3.71304,0.063 1.375,2.9687 -1.29918,-0.063 0,1.0625 5.053303,0 0,-1.1263 -1.77966,0 z m -0.50444,3.0328 1.40657,2.9991 -2.83963,-0.063 z"
       id="path3256"
       inkscape:connector-curvature="0"
       sodipodi:nodetypes="cccccccccccccccccccc"
       inkscape:export-filename="C:\Users\andrei\Desktop\htmledd\css\icons.png"
       inkscape:export-xdpi="90"
       inkscape:export-ydpi="90" />
    <g
       id="g3292"
       transform="translate(-477.2953,528.19348)"
       inkscape:export-filename="C:\Users\andrei\Desktop\htmledd\css\icons.png"
       inkscape:export-xdpi="90"
       inkscape:export-ydpi="90">
      <path
         inkscape:connector-curvature="0"
         id="path3266"
         d="m 520.10229,428.78239 0,1.95717 13.85803,0 0,-1.8309 z"
         style="fill:#0000ff;stroke:none" />
      <path
         sodipodi:nodetypes="ccccccccccccccccccccccccccccccccccccccccccccccccccccc"
         inkscape:connector-curvature="0"
         id="path3268"
         d="m 520.15625,430.78125 0,1 1.875,0 0,2.03125 -1.90625,0 0,0.9375 1.9375,0 0,2.0625 -1.90625,0 0,0.96875 1.90625,0 0,1.90625 1.09502,0 0,-1.875 2.90498,0 0,1.875 1.0625,0 0,-1.90625 2.90625,0 0,1.96875 1.09375,0 0,-1.9375 2.875,0 0,-0.9375 -2.9375,0 0,-2.0625 3,0 0,-1 -3,0 0,-2 2.9375,0 0,-1.03125 z m 5.875,1.03125 0,2.03125 -2.93623,0 0,-2 z m 4.03125,0 0,2.03125 -2.93623,0 0,-2 z m -4.03125,3 0,2.03125 -2.93623,0 0,-2 z m 4,0 0,2.03125 -2.93623,0 0,-2 z"
         style="fill:#808080;fill-opacity:1;stroke:none" />
      <path
         id="path3261"
         d="m 535,427.71875 -16.03125,0.0625 0,12.9375 16.03125,0 0,-13 z m -14.90625,1.0625 13.90625,0.125 0,10.8125 -13.90625,0 0,-10.9375 z"
         style="fill:#000000;stroke:none"
         inkscape:connector-curvature="0" />
    </g>
    <path
       style="fill:#000080;stroke:none"
       d="m 4.5723632,938.91836 -0.64713,5.3033 5.303309,0 -2.241279,-2.1308 c 0,0 2.159709,-2.7044 4.5443588,-2.7044 2.38466,0 3.73157,0.8305 2.8602,2.9549 -0.88423,2.1557 -1.45448,2.5192 -1.45448,2.5192 l 0.60404,0.6041 c 0,0 3.3783,-4.3681 1.637,-6.1094 -1.7413,-1.7413 -7.0942788,-1.0609 -8.9123988,2.0882 z"
       id="path3308"
       inkscape:connector-curvature="0"
       sodipodi:nodetypes="ccccssccscc"
       inkscape:export-filename="C:\Users\andrei\Desktop\htmledd\css\icons.png"
       inkscape:export-xdpi="90"
       inkscape:export-ydpi="90" />
    <path
       sodipodi:nodetypes="ccccssccscc"
       inkscape:connector-curvature="0"
       id="path3310"
       d="m 35.187699,938.91835 0.64713,5.3033 -5.303315,0 2.24128,-2.1308 c 0,0 -2.15971,-2.7044 -4.54436,-2.7044 -2.38466,0 -3.73157,0.8306 -2.8602,2.9549 0.88423,2.1557 1.45448,2.5192 1.45448,2.5192 l -0.60404,0.6041 c 0,0 -3.3783,-4.3681 -1.637,-6.1094 1.7413,-1.7413 7.09428,-1.0608 8.912405,2.0882 z"
       style="fill:#000080;stroke:none"
       inkscape:export-filename="C:\Users\andrei\Desktop\htmledd\css\icons.png"
       inkscape:export-xdpi="90"
       inkscape:export-ydpi="90" />
    <g
       id="g3367"
       transform="translate(-479.41031,472.56433)"
       inkscape:export-filename="C:\Users\andrei\Desktop\htmledd\css\icons.png"
       inkscape:export-xdpi="90"
       inkscape:export-ydpi="90">
      <g
         transform="translate(-6,-75)"
         id="g3339">
        <path
           style="fill:#7f7f7f;fill-opacity:1;stroke:none"
           d="m 560.33478,560.62308 0,1.01015 1.04172,0 0,-1.02593 z"
           id="path3316"
           inkscape:connector-curvature="0" />
        <g
           id="g3320"
           transform="translate(-13.416815,4.056232)">
          <path
             inkscape:connector-curvature="0"
             id="path3312"
             d="m 565.70595,553.51322 0,1.02678 -1.02679,0 0,1.02679 -0.98214,0 0,0.98214 -1.16071,0 0,5.89286 1.16071,0 0,-4.86607 0.98214,0 0,-2.00893 2.05358,0 0,-1.07143 4.86607,0 0,-0.89286 z"
             style="fill:#7f7f7f;fill-opacity:1;stroke:none" />
          <path
             sodipodi:nodetypes="ccccccccccccc"
             inkscape:connector-curvature="0"
             id="path3314"
             d="m 571.68809,554.54 0,0.98214 0.98215,0 0,1.02679 1.0625,0 0,5 1.03571,0 0,-3.97321 -1.02679,0 0,-2.05358 -1.07142,0 0,-0.98214 z"
             style="fill:#000000;stroke:none" />
          <path
             sodipodi:nodetypes="ccccccccccccccccccccccccc"
             inkscape:connector-curvature="0"
             id="path3318"
             d="m 563.66512,562.43819 0,1.04172 1.01016,0 0,1.04172 1.01014,0 0,0.94702 6.03724,0 0,-0.93912 1.04172,0 0,-0.98648 0.95571,0 0,-0.97859 1.04329,0 0,-1.02672 -1.04724,0 0,1.02673 -0.95965,0 0,0.97069 -1.04172,0 0,0.98648 -6.02934,0 0,-1.01016 -1.01016,0 0,-1.07329 z"
             style="fill:#000000;stroke:none" />
        </g>
        <path
           style="fill:#0000ff;stroke:none"
           d="m 550.3125,561.62781 0,4.875 0.95312,0 0,1.07812 1,0 0,1.03125 4.03125,0 0,-0.96875 -2,0 0,-3.01562 -1.98437,0 0,-0.96875 -1,0 0,-2.03125 0.96875,0 0,-1.03125 -1,0 0,1.03125 z"
           id="path3325"
           inkscape:connector-curvature="0" />
        <path
           style="fill:#007f00;fill-opacity:1;stroke:none"
           d="m 552.29687,561.61218 0,1.01563 -0.98437,0 0,1 1,0 0,0.98437 1.98437,0 0,3.01563 1.98438,0 2.01562,0 0,-1.98438 1.01563,0 0,-0.98437 -1.03125,0 0,-1.03125 -1.96875,0 0,-0.98438 0.95312,0 0,-1.03125 -1.95312,0 0,1.01563 -1.01563,0 0,-1.03125 z"
           id="path3327"
           inkscape:connector-curvature="0" />
        <path
           style="fill:#ffffff;stroke:none"
           d="m 556.28125,567.62781 0,0.96875 2.03125,0 0,-0.95313 z"
           id="path3329"
           inkscape:connector-curvature="0" />
        <path
           style="fill:#0000ff;fill-opacity:1;stroke:none"
           d="m 558.3125,565.64343 0,1.96875 0.95312,0 0,-0.96875 1.0625,0 0,-3 -1.01562,0 0,-1.01562 -3,0 1,0 0,-1 -1.98438,0 0,0.96875 -1.01562,0 0,-1.98438 3.98437,0 0,2 0.96875,0 -0.98437,0 0,2 1.04687,0 0,1.03125 z"
           id="path3331"
           inkscape:connector-curvature="0" />
        <path
           style="fill:#ffffff;stroke:none"
           d="m 551.32232,560.61361 0.97227,0 0,0.97227 0.99437,0 0.97227,0 0,-0.92807 0,-1.06066 1.01647,0 0,-0.95018 -1.92245,0 0,0.97227 -2.07713,0 z"
           id="path3333"
           inkscape:connector-curvature="0" />
        <path
           style="fill:#0000ff;fill-opacity:1;stroke:none"
           d="m 558.2829,562.62445 0,1.01646 -1.98874,0 0,-0.97227 z"
           id="path3335"
           inkscape:connector-curvature="0" />
        <path
           style="fill:#7f7f7f;fill-opacity:1;stroke:none"
           d="m 560.31583,560.63571 0,0.97227 1.03857,0 0,-1.01647 z"
           id="path3337"
           inkscape:connector-curvature="0" />
      </g>
      <g
         transform="matrix(0.79886741,0,0,0.67315954,96.436009,109.40749)"
         id="g3363">
        <path
           style="fill:#000000;stroke:none"
           d="m 571.71875,568.9375 0,1.03125 -1,0 0,-1 -3.96875,0 0,1 -1.03125,0 0,1 -1,0 0,2.96875 1,0 0,1.03125 1,0 0,1 4,0 0,-1 1,0 0,1 4.03125,0 0,-1 1,0 0,-1 1,0 0,-3.03125 -1.03125,0 0,-1 -1,0 0,-1 z m -3.375,1.84375 1.49998,0.02 0.0938,0.88625 0.75,0.0497 0,0.70032 1.09375,0 0,-0.66907 1.0625,0.0128 0,-1 1.3125,0 0,0.5625 0.625,0 0,0.5625 0.65625,0 0,0.9375 -0.625,0 0,0.5625 -0.65625,0 0,0.40625 -1.40628,0.0312 -0.0312,-0.78125 -0.9375,0.0184 0,-0.64343 -1.09375,0 0,0.58093 -0.75,0.0441 0.0312,0.75 -1.65622,0 0,-0.40625 -0.625,0 0,-0.5625 -0.65625,0 0,-0.9375 0.65625,0 0,-0.5625 0.65625,0 z"
           id="path3353"
           inkscape:connector-curvature="0"
           sodipodi:nodetypes="cccccccccccccccccccccccccccccccccccccccccccccccccccccccccccccccccc" />
        <path
           style="fill:#808080;stroke:none"
           d="m 574.125,569.53125 -1.09375,0.21875 -0.75,0.375 -0.53125,0.53125 -0.59375,0 -0.9375,-0.53125 -0.75,-0.4375 -1.03125,0 -0.65625,0.125 -0.65625,0.34375 -0.53125,0.5 -0.46875,0.84375 -0.1875,0.59375 0,1.0625 0.5625,1 0.59375,0.65625 0.59375,0.21875 2.125,0.0312 0.9375,-0.5 0.625,-0.875 0.75,0.96875 1.25,0.46875 1.46875,-0.0625 1.28125,-0.84375 0.5625,-1.1875 0,-1.3125 L 576,570.5625 575.03125,569.75 z m -0.34754,0.59597 0.7904,0.13415 0.875,0.67456 0.58081,0.91161 -0.0221,1.08996 -0.44286,0.83238 -0.74935,0.61741 -1.57767,0.1067 -0.85983,-0.42835 -0.80498,-0.77344 -0.32446,-0.0261 -0.51831,0.75 -0.73326,0.4817 -1.56185,0.0792 -0.73013,-0.1654 -0.59754,-0.50536 -0.5,-0.80871 -0.13258,-0.64108 0.15625,-0.61964 0.26072,-0.60827 0.56629,-0.53504 0.65089,-0.29419 0.54956,-0.1692 0.9375,0.0663 0.6654,0.375 0.74621,0.60133 0.51831,0.0221 0.66762,-0.42455 0.61206,-0.56472 z"
           id="path3358"
           inkscape:connector-curvature="0"
           sodipodi:nodetypes="ccccccccccccccccccccccccccccccccccccccccccccccccccccccccccc" />
      </g>
    </g>
    <g
       id="g3412"
       transform="translate(-532.87536,504.33219)"
       inkscape:export-filename="C:\Users\andrei\Desktop\htmledd\css\icons.png"
       inkscape:export-xdpi="90"
       inkscape:export-ydpi="90">
      <g
         id="g3486">
        <path
           inkscape:connector-curvature="0"
           style="fill:#000000;stroke:none"
           d="m 608.5,432.875 -11.96875,0.0312 0,11.9375 11.96875,0 0,-11.96875 z m -10.96875,1 9.9375,0 0,9.96875 -9.9375,0 0,-9.96875 z"
           id="path3398" />
        <path
           style="fill:#dfdeb0;fill-opacity:1;stroke:none"
           d="m 597.46875,433.79968 0,8.28125 0,0.3125 3.70312,-3.70312 2.15625,2.15625 0.92188,-0.92188 1.21875,0 2.10937,2.10938 0,-8.26563 z"
           id="path3410"
           inkscape:connector-curvature="0" />
        <path
           style="fill:none;stroke:#000000;stroke-width:1px;stroke-linecap:butt;stroke-linejoin:miter;stroke-opacity:1"
           d="m 604.5625,434.875 -1.0625,1.03125 0,0.90625 1.03125,1 0.96875,0 1.03125,-1.03125 0,-0.84375 -1.0625,-1.0625 z"
           id="path3403"
           inkscape:connector-curvature="0"
           sodipodi:nodetypes="ccccccccc" />
        <path
           style="fill:#848275;fill-opacity:1;stroke:#000000;stroke-width:1px;stroke-linecap:butt;stroke-linejoin:miter;stroke-opacity:1"
           d="m 597.59375,442.70593 3.5625,-3.5625 4.3125,4.3125 -2.25,-2.25 1.10937,-1.10937 0.92188,0 2.17969,2.17969 0,1.61718 -9.80469,0 z"
           id="path3408"
           inkscape:connector-curvature="0" />
      </g>
    </g>
    <g
       id="g3473"
       transform="translate(-456.59215,644.28946)"
       inkscape:export-filename="C:\Users\andrei\Desktop\htmledd\css\icons.png"
       inkscape:export-xdpi="90"
       inkscape:export-ydpi="90">
      <path
         sodipodi:nodetypes="ccccccccccccc"
         inkscape:connector-curvature="0"
         id="path3440"
         d="m 499.3125,294.54784 0,9.87684 12.9375,0 0,-10 -8.125,0 0,-1.1875 -0.59139,1.47029 6.91054,-2.41444 0.80585,-0.61872 0,-1.74519 -0.71523,0 -11.22227,4.24372 z"
         style="fill:#808080;fill-opacity:1;stroke:none" />
      <path
         inkscape:connector-curvature="0"
         id="path3438"
         d="m 500.25,295.42468 0,8 11.125,0 0,-8.0625 z"
         style="fill:#ffffff;stroke:none" />
      <path
         sodipodi:nodetypes="ccccccccccccccccccccccccccccccccccccccccccccccccccccccccccccccccccccccccccccccccccccccccccccccccccc"
         inkscape:connector-curvature="0"
         id="path3430"
         d="m 510.25,290.40625 0,0.9375 1.03125,0 0,-0.9375 z m -3.03125,1.03125 0,1.03125 -3,0 0,0.96875 3.03125,0 0,-1.0625 3,0 0,-0.9375 z m -3,2 -2.03125,0 0,1.96875 -0.96875,0 0,1.0625 -0.96875,0 0,0.96875 1,0 0,-1.0625 1,0 0.0312,0 0,1.03125 0.96875,0 0,-0.96875 1,0 0,0.96875 1,0 0,-0.96875 1,0 0,0.9375 0.96875,0 0,-0.9375 1,0 0,-1.03125 -0.9375,0 0,-1.03125 -1.0625,0 0,0.96875 -0.9375,0 0,0.0312 -0.044,0 0,1.03125 -0.97048,0 0,-1.03125 -0.98549,0 0,-0.9375 0.875,-0.0312 0,0.96875 0.0937,0 1.03125,-0.0312 0,-0.9375 -1.0625,0 z m 4,1.96875 1.03125,0 0,-1.0625 -1.03125,0 z m 1.03125,0 0,1 -1,0 0,1 0.96875,0 0,-0.9375 1.03125,0 0,1.03125 1.03125,0 0,-1.0625 -1,0 0,-1.0625 1,0 0,-0.96875 -0.125,0 -0.90625,0 0,1 z m 2.03125,-0.0312 0,0.0312 0.0312,0 0,-0.0312 z m 0.0312,0.0312 0,0.96875 0.9375,0 0,8.03125 -12,0 0,0.96875 13,0 0,-9.96875 z m -5.09375,-0.0312 1,0 0,1 -1,0 z"
         style="fill:#000000;stroke:none" />
      <path
         transform="matrix(1.3513514,0,0,1.3513514,-175.83787,-103.86836)"
         d="m 502.22259,294.80774 c 0,0.45154 -0.36605,0.81759 -0.81759,0.81759 -0.45154,0 -0.81759,-0.36605 -0.81759,-0.81759 0,-0.45154 0.36605,-0.81759 0.81759,-0.81759 0.45154,0 0.81759,0.36605 0.81759,0.81759 z"
         sodipodi:ry="0.8175922"
         sodipodi:rx="0.8175922"
         sodipodi:cy="294.80774"
         sodipodi:cx="501.405"
         id="path3442"
         style="fill:#ffff00;fill-opacity:1;stroke:none"
         sodipodi:type="arc" />
      <g
         id="g3456">
        <g
           id="text3444"
           style="font-size:5.7612896px;font-style:normal;font-weight:normal;line-height:125%;letter-spacing:0px;word-spacing:0px;fill:#fc0404;fill-opacity:1;stroke:none;font-family:Sans"
           transform="scale(0.99743938,1.0025672)">
          <path
             id="path3465"
             style="font-weight:bold;fill:#fc0404;-inkscape-font-specification:Sans Bold"
             d="m 502.8053,300.43832 0.76517,-0.0928 c 0.0244,0.19505 0.09,0.34414 0.19692,0.44729 0.10689,0.10315 0.2363,0.15472 0.38821,0.15472 0.16316,0 0.30053,-0.0619 0.41212,-0.18566 0.11159,-0.12378 0.16738,-0.29069 0.16738,-0.50074 0,-0.19879 -0.0534,-0.35633 -0.16035,-0.47261 -0.1069,-0.11627 -0.23724,-0.17441 -0.39102,-0.17441 -0.10128,0 -0.22224,0.0197 -0.3629,0.0591 l 0.0872,-0.6442 c 0.2138,0.006 0.37696,-0.0408 0.48949,-0.13925 0.11252,-0.0985 0.16878,-0.22927 0.16878,-0.39243 0,-0.13878 -0.0413,-0.24943 -0.12377,-0.33195 -0.0825,-0.0825 -0.19224,-0.12378 -0.32914,-0.12378 -0.13503,0 -0.25037,0.0469 -0.34601,0.14066 -0.0956,0.0938 -0.15379,0.23068 -0.17442,0.41071 l -0.7286,-0.12377 c 0.0506,-0.24943 0.12706,-0.4487 0.22927,-0.59779 0.10221,-0.1491 0.24474,-0.26631 0.4276,-0.35165 0.18285,-0.0853 0.38774,-0.12799 0.61467,-0.12799 0.38821,0 0.69952,0.12378 0.93395,0.37133 0.19317,0.20255 0.28975,0.43135 0.28976,0.6864 -10e-6,0.36196 -0.19786,0.65078 -0.59357,0.86645 0.2363,0.0506 0.42525,0.1641 0.56684,0.34039 0.14159,0.17629 0.21239,0.38915 0.21239,0.63858 0,0.36195 -0.13222,0.67046 -0.39665,0.92552 -0.26443,0.25505 -0.59357,0.38258 -0.98741,0.38258 -0.37321,0 -0.68265,-0.10737 -0.92833,-0.3221 -0.24568,-0.21474 -0.38821,-0.49558 -0.42759,-0.84253 z"
             inkscape:connector-curvature="0" />
        </g>
        <g
           id="text3448"
           style="font-size:5.7612896px;font-style:normal;font-weight:normal;line-height:125%;letter-spacing:0px;word-spacing:0px;fill:#0404fc;fill-opacity:1;stroke:none;font-family:Sans"
           transform="scale(0.99743938,1.0025672)">
          <path
             id="path3468"
             style="font-weight:bold;fill:#0404fc;-inkscape-font-specification:Sans Bold"
             d="m 508.93241,300.7984 0,0.73422 -2.77094,0 c 0.03,-0.27756 0.12003,-0.54059 0.27007,-0.78908 0.15003,-0.24849 0.44634,-0.5781 0.88894,-0.98881 0.35633,-0.33195 0.57482,-0.557 0.65546,-0.67516 0.10878,-0.16315 0.16316,-0.32444 0.16317,-0.48385 -1e-5,-0.17629 -0.0474,-0.31179 -0.14207,-0.4065 -0.0947,-0.0947 -0.22552,-0.14206 -0.39243,-0.14206 -0.16504,0 -0.29632,0.0497 -0.39384,0.14909 -0.0975,0.0994 -0.15378,0.26444 -0.16879,0.49511 l -0.78767,-0.0788 c 0.0469,-0.43509 0.1941,-0.74735 0.44166,-0.93677 0.24755,-0.18941 0.557,-0.28412 0.92833,-0.28412 0.40697,0 0.72673,0.10971 0.95928,0.32913 0.23255,0.21943 0.34882,0.4923 0.34883,0.81862 -1e-5,0.18567 -0.0333,0.36243 -0.0999,0.53028 -0.0666,0.16785 -0.17207,0.34367 -0.31648,0.52746 -0.0956,0.1219 -0.26818,0.29726 -0.51761,0.52606 -0.24943,0.2288 -0.40744,0.38071 -0.47401,0.45572 -0.0666,0.075 -0.1205,0.14816 -0.16176,0.21943 z"
             inkscape:connector-curvature="0" />
        </g>
        <g
           id="text3452"
           style="font-size:5.7612896px;font-style:normal;font-weight:normal;line-height:125%;letter-spacing:0px;word-spacing:0px;fill:#008000;fill-opacity:1;stroke:none;font-family:Sans"
           transform="scale(0.99743938,1.0025672)">
          <path
             id="path3471"
             style="font-weight:bold;fill:#008000;-inkscape-font-specification:Sans Bold"
             d="m 511.54326,301.48978 -0.79049,0 0,-2.97911 c -0.28881,0.27007 -0.6292,0.4698 -1.02116,0.5992 l 0,-0.71735 c 0.20629,-0.0675 0.4304,-0.19551 0.67233,-0.38399 0.24193,-0.18848 0.40791,-0.40837 0.49793,-0.65968 l 0.64139,0 z"
             inkscape:connector-curvature="0" />
        </g>
      </g>
    </g>
    <path
       style="fill:#000000;stroke:none"
       d="m 1.3317202,1040.1836 3.75,3.75 3.457107,-3.7665 z"
       id="path3117"
       inkscape:connector-curvature="0"
       sodipodi:nodetypes="cccc"
       inkscape:export-filename="C:\Users\andrei\Desktop\htmledd\css\icons.png"
       inkscape:export-xdpi="90"
       inkscape:export-ydpi="90" />
    <path
       sodipodi:nodetypes="cccc"
       inkscape:connector-curvature="0"
       id="path3119"
       d="m 11.20672,1043.9171 3.75,-3.75 3.457107,3.7665 z"
       style="fill:#000000;stroke:none"
       inkscape:export-filename="C:\Users\andrei\Desktop\htmledd\css\icons.png"
       inkscape:export-xdpi="90"
       inkscape:export-ydpi="90" />
  </g>
</svg>
