<?xml version="1.0" encoding="UTF-8" standalone="no"?>
<!-- Created with Inkscape (http://www.inkscape.org/) -->

<svg
   xmlns:dc="http://purl.org/dc/elements/1.1/"
   xmlns:cc="http://creativecommons.org/ns#"
   xmlns:rdf="http://www.w3.org/1999/02/22-rdf-syntax-ns#"
   xmlns:svg="http://www.w3.org/2000/svg"
   xmlns="http://www.w3.org/2000/svg"
   xmlns:sodipodi="http://sodipodi.sourceforge.net/DTD/sodipodi-0.dtd"
   xmlns:inkscape="http://www.inkscape.org/namespaces/inkscape"
   width="744.09448819"
   height="1052.3622047"
   id="svg2"
   version="1.1"
   inkscape:version="0.48.4 r9939"
   sodipodi:docname="ms97-icons.svg">
  <defs
     id="defs4" />
  <sodipodi:namedview
     id="base"
     pagecolor="#ffffff"
     bordercolor="#666666"
     borderopacity="1.0"
     inkscape:pageopacity="0.0"
     inkscape:pageshadow="2"
     inkscape:zoom="1.4142136"
     inkscape:cx="188.5922"
     inkscape:cy="40.159912"
     inkscape:document-units="px"
     inkscape:current-layer="layer1"
     showgrid="false"
     inkscape:window-width="1366"
     inkscape:window-height="706"
     inkscape:window-x="-8"
     inkscape:window-y="-8"
     inkscape:window-maximized="1"
     showguides="true"
     inkscape:guide-bbox="true">
    <sodipodi:guide
       orientation="1,0"
       position="0,0"
       id="guide3492" />
    <sodipodi:guide
       orientation="1,0"
       position="20,918.53171"
       id="guide3494" />
    <sodipodi:guide
       orientation="1,0"
       position="40,908.63221"
       id="guide3496" />
    <sodipodi:guide
       orientation="1,0"
       position="60,897.3185"
       id="guide3498" />
    <sodipodi:guide
       orientation="1,0"
       position="80,888.12611"
       id="guide3500" />
    <sodipodi:guide
       orientation="0,1"
       position="144.24978,0"
       id="guide3502" />
    <sodipodi:guide
       orientation="0,1"
       position="149.19953,20"
       id="guide3504" />
    <sodipodi:guide
       orientation="0,1"
       position="122.32947,40"
       id="guide3506" />
    <sodipodi:guide
       orientation="0,1"
       position="102.53048,60"
       id="guide3508" />
    <sodipodi:guide
       orientation="0,1"
       position="112.42998,80"
       id="guide3510" />
    <sodipodi:guide
       orientation="0,1"
       position="133.64318,100"
       id="guide3512" />
    <sodipodi:guide
       orientation="0,1"
       position="146.3711,120"
       id="guide3514" />
    <sodipodi:guide
       orientation="0,1"
       position="118.79394,140"
       id="guide3516" />
    <sodipodi:guide
       orientation="0,1"
       position="139.30004,160"
       id="guide3518" />
    <sodipodi:guide
       orientation="0,1"
       position="118.08683,180"
       id="guide3520" />
    <sodipodi:guide
       orientation="0,1"
       position="116.67262,200"
       id="guide3522" />
  </sodipodi:namedview>
  <metadata
     id="metadata7">
    <rdf:RDF>
      <cc:Work
         rdf:about="">
        <dc:format>image/svg+xml</dc:format>
        <dc:type
           rdf:resource="http://purl.org/dc/dcmitype/StillImage" />
        <dc:title></dc:title>
      </cc:Work>
    </rdf:RDF>
  </metadata>
  <g
     inkscape:label="Layer 1"
     inkscape:groupmode="layer"
     id="layer1">
    <rect
       style="fill:none;stroke:none"
       id="rect3524"
       width="80"
       height="140.13904"
       x="0.13033295"
       y="912.23608"
       inkscape:export-filename="C:\Users\andrei\Desktop\htmledd\css\icons.png"
       inkscape:export-xdpi="90"
       inkscape:export-ydpi="90" />
    <g
       id="g3084"
       transform="translate(-545.06844,502.24808)"
       inkscape:export-filename="C:\Users\andrei\Desktop\htmledd\css\icons.png"
       inkscape:export-xdpi="90"
       inkscape:export-ydpi="90"
       style="fill:#000000">
      <path
         inkscape:connector-curvature="0"
         id="path3072"
         d="m 548.00776,454.85695 1.01015,-1.01015 1.04172,0 0,2.90419 0.91545,0 0,0.94701 -2.93576,0 0,-0.78918 0.91546,0 0,-1.10485 -0.94702,0 z"
         style="fill:#000000;stroke:none" />
      <path
         inkscape:connector-curvature="0"
         id="path3074"
         d="m 548.07089,459.78144 0,-0.94701 1.89404,0 1.04172,1.04172 0,0.78918 -1.08907,1.08907 1.0575,0 0,1.02593 -2.90419,0 0,-0.91545 0.88389,0 1.04172,-1.04172 0,-0.97858 z"
         style="fill:#000000;stroke:none" />
      <path
         inkscape:connector-curvature="0"
         id="path3076"
         d="m 548.03932,463.85362 0,0.97859 0.91546,0 1.01015,1.01015 0,0.94702 -1.98874,0 0,0.94702 1.98874,0 0.9628,-0.96281 0,-0.93123 -0.93913,-0.93913 0.98648,0 0,-1.01804 z"
         style="fill:#000000;stroke:none" />
      <path
         inkscape:connector-curvature="0"
         id="path3078"
         d="m 552.99539,454.79382 0,1.01015 9.02823,0 0,-0.97859 z"
         style="fill:#000000;stroke:none" />
      <path
         style="fill:#000000;stroke:none"
         d="m 552.99539,459.78358 0,1.01015 9.02823,0 0,-0.97859 z"
         id="path3080"
         inkscape:connector-curvature="0" />
      <path
         inkscape:connector-curvature="0"
         id="path3082"
         d="m 552.99539,464.73068 0,1.01015 9.02823,0 0,-0.97859 z"
         style="fill:#000000;stroke:none" />
    </g>
    <g
       id="g3104"
       transform="translate(-547.89163,502.83537)"
       inkscape:export-filename="C:\Users\andrei\Desktop\htmledd\css\icons.png"
       inkscape:export-xdpi="90"
       inkscape:export-ydpi="90"
       style="fill:#000000">
      <path
         inkscape:connector-curvature="0"
         id="path3092"
         d="m 570.98873,453.78366 0,2.90419 3.03046,0 0,-2.90419 z"
         style="fill:#000000;fill-opacity:1;stroke:none" />
      <path
         inkscape:connector-curvature="0"
         id="path3094"
         d="m 575.97636,454.79382 0,1.01015 8.99667,0 0,-1.02594 z"
         style="fill:#000000;stroke:none" />
      <path
         style="fill:#000000;fill-opacity:1;stroke:none"
         d="m 570.98873,458.7211 0,2.90419 3.03046,0 0,-2.90419 z"
         id="path3096"
         inkscape:connector-curvature="0" />
      <path
         style="fill:#000000;stroke:none"
         d="m 575.97636,459.73126 0,1.01015 8.99667,0 0,-1.02594 z"
         id="path3098"
         inkscape:connector-curvature="0" />
      <path
         inkscape:connector-curvature="0"
         id="path3100"
         d="m 570.98873,463.72078 0,2.90419 3.03046,0 0,-2.90419 z"
         style="fill:#000000;fill-opacity:1;stroke:none" />
      <path
         inkscape:connector-curvature="0"
         id="path3102"
         d="m 575.97636,464.73094 0,1.01015 8.99667,0 0,-1.02594 z"
         style="fill:#000000;stroke:none" />
    </g>
    <path
       style="fill:#000000;stroke:none"
       d="M 63.25 996.125 L 63.25 1009.1562 L 76.28125 1009.1562 L 76.28125 996.1875 L 63.25 996.125 z M 64.28125 997.21875 L 75.21875 997.21875 L 75.21875 1008.1875 L 64.28125 1008.1875 L 64.28125 997.21875 z M 69.25 998.21875 L 69.25 1002.2188 L 65.25 1002.2188 L 65.25 1003.1875 L 69.25 1003.1875 L 69.25 1007.125 L 70.25 1007.125 L 70.25 1003.1875 L 74.375 1003.1875 L 74.375 1002.2188 L 70.25 1002.2188 L 70.25 998.21875 L 69.25 998.21875 z "
       id="path3195"
       inkscape:export-filename="C:\Users\andrei\Desktop\htmledd\css\icons.png"
       inkscape:export-xdpi="90"
       inkscape:export-ydpi="90" />
    <path
       style="fill:#000000;stroke:none"
       d="M 57.84375 935.78125 L 41.8125 935.84375 L 41.8125 948.78125 L 57.84375 948.78125 L 57.84375 935.78125 z M 42.9375 936.84375 L 56.84375 936.96875 L 56.84375 947.78125 L 42.9375 947.78125 L 42.9375 936.84375 z M 43.84375 938 L 43.84375 940.59375 L 49.5625 940.59375 L 49.5625 938 L 43.84375 938 z M 50.28125 938 L 50.28125 940.59375 L 56 940.59375 L 56 938 L 50.28125 938 z M 43.84375 941.125 L 43.84375 943.75 L 49.5625 943.75 L 49.5625 941.125 L 43.84375 941.125 z M 50.28125 941.125 L 50.28125 943.75 L 56 943.75 L 56 941.125 L 50.28125 941.125 z M 43.84375 944.125 L 43.84375 946.75 L 49.5625 946.75 L 49.5625 944.125 L 43.84375 944.125 z M 50.28125 944.125 L 50.28125 946.75 L 56 946.75 L 56 944.125 L 50.28125 944.125 z "
       id="path3261"
       inkscape:export-filename="C:\Users\andrei\Desktop\htmledd\css\icons.png"
       inkscape:export-xdpi="90"
       inkscape:export-ydpi="90" />
    <path
       style="fill:#000000;stroke:none"
       d="m 4.702696,919.49548 -0.64713,5.3033 5.303309,0 -2.241279,-2.1308 c 0,0 2.159709,-2.7044 4.544359,-2.7044 2.38466,0 3.73157,0.8305 2.8602,2.9549 -0.88423,2.1557 -1.45448,2.5192 -1.45448,2.5192 l 0.60404,0.6041 c 0,0 3.3783,-4.3681 1.637,-6.1094 -1.7413,-1.7413 -7.094279,-1.0609 -8.912399,2.0882 z"
       id="path3308"
       inkscape:connector-curvature="0"
       sodipodi:nodetypes="ccccssccscc"
       inkscape:export-filename="C:\Users\andrei\Desktop\htmledd\css\icons.png"
       inkscape:export-xdpi="90"
       inkscape:export-ydpi="90" />
    <path
       sodipodi:nodetypes="ccccssccscc"
       inkscape:connector-curvature="0"
       id="path3310"
       d="m 35.318032,919.49547 0.64713,5.3033 -5.303315,0 2.24128,-2.1308 c 0,0 -2.15971,-2.7044 -4.54436,-2.7044 -2.38466,0 -3.73157,0.8306 -2.8602,2.9549 0.88423,2.1557 1.45448,2.5192 1.45448,2.5192 l -0.60404,0.6041 c 0,0 -3.3783,-4.3681 -1.637,-6.1094 1.7413,-1.7413 7.09428,-1.0608 8.912405,2.0882 z"
       style="fill:#000000;stroke:none"
       inkscape:export-filename="C:\Users\andrei\Desktop\htmledd\css\icons.png"
       inkscape:export-xdpi="90"
       inkscape:export-ydpi="90" />
    <g
       id="g3159"
       inkscape:export-filename="C:\Users\andrei\Desktop\htmledd\css\icons.png"
       inkscape:export-xdpi="90"
       inkscape:export-ydpi="90">
      <path
         inkscape:export-ydpi="90"
         inkscape:export-xdpi="90"
         inkscape:export-filename="C:\Users\andrei\Desktop\htmledd\css\icons.png"
         sodipodi:nodetypes="cccc"
         inkscape:connector-curvature="0"
         id="path3117"
         d="m 1.462053,1020.0575 3.75,3.75 3.457107,-3.7665 z"
         style="fill:#000000;stroke:none" />
      <path
         inkscape:export-ydpi="90"
         inkscape:export-xdpi="90"
         inkscape:export-filename="C:\Users\andrei\Desktop\htmledd\css\icons.png"
         style="fill:#000000;stroke:none"
         d="m 11.337053,1023.791 3.75,-3.75 3.457107,3.7665 z"
         id="path3119"
         inkscape:connector-curvature="0"
         sodipodi:nodetypes="cccc" />
    </g>
    <path
       style="fill:#ffffff;stroke:#000000;stroke-width:1px;stroke-linecap:butt;stroke-linejoin:miter;stroke-opacity:1"
       d="m 3.049398,1035.3032 0,7.955 12.06501,0 0,-7.9108 z"
       id="path3182"
       inkscape:connector-curvature="0"
       inkscape:export-filename="C:\Users\andrei\Desktop\htmledd\css\icons.png"
       inkscape:export-xdpi="90"
       inkscape:export-ydpi="90" />
    <g
       style="font-size:40px;font-style:normal;font-weight:normal;line-height:125%;letter-spacing:0px;word-spacing:0px;fill:#000000;fill-opacity:1;stroke:none;font-family:Sans"
       id="text3184"
       transform="matrix(0.1858782,0,0,0.1858782,43.213327,853.35195)"
       inkscape:export-filename="C:\Users\andrei\Desktop\htmledd\css\icons.png"
       inkscape:export-xdpi="90"
       inkscape:export-ydpi="90">
      <path
         d="m -180.9267,1012.7642 -6.28906,0 -2.5,-6.5039 -11.44531,0 -2.36328,6.5039 -6.13282,0 11.15235,-28.63279 6.11328,0 z m -10.64453,-11.3281 -3.94531,-10.625 -3.86719,10.625 z"
         style="font-weight:bold"
         id="path3194"
         inkscape:connector-curvature="0" />
      <path
         d="m -173.77826,998.35016 -4.98047,-0.89844 c 0.5599,-2.00519 1.52344,-3.48956 2.89063,-4.45312 1.36718,-0.96352 3.39843,-1.4453 6.09375,-1.44532 2.4479,2e-5 4.27082,0.28974 5.46875,0.86914 1.1979,0.57945 2.04099,1.31513 2.52929,2.20704 0.48827,0.89194 0.73241,2.52931 0.73243,4.9121 l -0.0586,6.40624 c -2e-5,1.8229 0.0879,3.1673 0.26367,4.0332 0.17577,0.8659 0.50454,1.7936 0.98633,2.7832 l -5.42969,0 c -0.14324,-0.3646 -0.31902,-0.9049 -0.52734,-1.6211 -0.0912,-0.3255 -0.15626,-0.5403 -0.19531,-0.6445 -0.93752,0.9115 -1.94012,1.595 -3.00781,2.0508 -1.06772,0.4557 -2.20705,0.6836 -3.41797,0.6836 -2.13543,0 -3.81837,-0.5795 -5.04883,-1.7383 -1.23047,-1.1589 -1.84571,-2.6237 -1.8457,-4.3945 -1e-5,-1.1719 0.27994,-2.2168 0.83984,-3.1348 0.55989,-0.918 1.3444,-1.6211 2.35352,-2.1094 1.0091,-0.4883 2.46418,-0.9147 4.36523,-1.2793 2.56509,-0.4817 4.34243,-0.93096 5.33203,-1.34764 l 0,-0.54687 c -1e-5,-1.05467 -0.26043,-1.80662 -0.78125,-2.25586 -0.52085,-0.4492 -1.50392,-0.67381 -2.94922,-0.67383 -0.97657,2e-5 -1.73829,0.19208 -2.28515,0.57617 -0.54689,0.38413 -0.98959,1.05796 -1.32813,2.02149 z m 7.34375,4.45314 c -0.70314,0.2344 -1.81642,0.5143 -3.33984,0.8398 -1.52345,0.3256 -2.51954,0.6446 -2.98828,0.9571 -0.71616,0.5078 -1.07423,1.1523 -1.07422,1.9336 -1e-5,0.7682 0.28645,1.4322 0.85937,1.9921 0.57291,0.5599 1.30208,0.8399 2.1875,0.8399 0.98957,0 1.93358,-0.3255 2.83203,-0.9766 0.66405,-0.4948 1.10025,-1.1002 1.3086,-1.8164 0.14321,-0.4687 0.21483,-1.3607 0.21484,-2.6758 z"
         style="font-weight:bold"
         id="path3196"
         inkscape:connector-curvature="0" />
    </g>
    <path
       style="fill:#000000;fill-opacity:1;stroke:none"
       d="m 13.4375,1040.5 -5.46875,6.0938 -0.0625,1.125 2.0625,1.9062 2.78125,0.2188 5.25,-4.9688 -0.03125,-3.1562 -1.21875,-1.2188 -3.3125,0 z m -4.375,5.3438 2.0625,2.0937 -0.96875,0.9687 -0.21875,0.1876 -1.6875,-1.6876 0.03125,-0.7812 0.78125,-0.7812 z m 2.5,2.25 2.28125,0.1874 -1.28125,1.0938 -2.125,-0.125 1.125,-1.1562 z"
       id="path3174"
       inkscape:connector-curvature="0"
       inkscape:export-filename="C:\Users\andrei\Desktop\htmledd\css\icons.png"
       inkscape:export-xdpi="90"
       inkscape:export-ydpi="90" />
    <path
       style="fill:#000000;stroke:none"
       d="m 5.9250008,997.60769 0,1 1.53125,0 0,7.99991 -1.53125,0 0,1.0625 6.0000002,0 c 1.6022,0.061 3.04847,-0.6954 3.03125,-3.0625 -0.0451,-1.6232 -0.91441,-2.5625 -2.5625,-2.5625 0.93961,-0.3105 2.04714,-0.3155 2.03125,-2.0312 -0.10158,-1.88683 -1.20751,-2.09097 -2.3125,-2.34371 z m 4.03125,1.03125 c 1.7357502,3.1e-4 2.0332002,0.28781 2.0000002,1.34375 0.0395,1.67381 -0.66362,1.51331 -2.0000002,1.53121 z m 0,4.06246 c 1.7701502,-0.045 2.4786002,0.2222 2.5000002,1.9062 0.0265,2.0876 -2.5000002,2 -2.5000002,2 z"
       id="path3246"
       inkscape:connector-curvature="0"
       sodipodi:nodetypes="cccccccccccccccccccc"
       inkscape:export-filename="C:\Users\andrei\Desktop\htmledd\css\icons.png"
       inkscape:export-xdpi="90"
       inkscape:export-ydpi="90" />
    <path
       style="fill:#000000;stroke:none"
       d="m 29.418218,997.62956 0,1.03504 1.375,0 -2.15924,7.9921 -1.21576,0 0,0.9949 3.9375,0 0,-0.9855 -1.1875,0 2.17625,-8.00027 1.23,0 0,-1.03627 z"
       id="path3254"
       inkscape:connector-curvature="0"
       sodipodi:nodetypes="ccccccccccccc"
       inkscape:export-filename="C:\Users\andrei\Desktop\htmledd\css\icons.png"
       inkscape:export-xdpi="90"
       inkscape:export-ydpi="90" />
    <g
       id="g3410"
       transform="translate(-204.75,-12.66075)"
       inkscape:export-filename="C:\Users\andrei\Desktop\htmledd\css\icons.png"
       inkscape:export-xdpi="90"
       inkscape:export-ydpi="90">
      <path
         sodipodi:nodetypes="cccccccccccccccccccc"
         inkscape:connector-curvature="0"
         id="path3257"
         d="m 249.98438,1010.3622 0,0.9687 1.39062,0 0,6.0313 c 0,1.1758 0.9345,2.7734 2.98438,2.9844 l 1.5625,0 c 2.35757,-0.099 3.02938,-2.232 3.04687,-3.0469 l 0,-5.9375 1.03125,0 0,-1.0156 -3.98438,0 0,1.0312 1.20313,0 0,5.7188 c -0.003,1.9512 -1.2608,2.25 -2.25,2.25 -1.01428,-0.047 -1.99079,-0.8749 -1.92187,-1.9219 l 0,-6.0625 1.35937,0 0,-0.9844 z"
         style="fill:#000000;stroke:none" />
      <path
         inkscape:connector-curvature="0"
         id="path3259"
         d="m 249.98434,1021.2175 0,1.0386 10.05418,0 0,-1.0165 z"
         style="fill:#000000;stroke:none" />
    </g>
    <g
       id="g3278"
       transform="translate(-224.85996,4.5961941)"
       inkscape:export-filename="C:\Users\andrei\Desktop\htmledd\css\icons.png"
       inkscape:export-xdpi="90"
       inkscape:export-ydpi="90">
      <g
         style="font-size:8.53325081px;font-style:normal;font-weight:normal;line-height:125%;letter-spacing:0px;word-spacing:0px;fill:#000000;fill-opacity:1;stroke:none;font-family:Sans"
         id="text3261">
        <path
           d="m 248.7648,1037.0538 -1.06249,-0.1917 c 0.11944,-0.4277 0.325,-0.7444 0.61666,-0.9499 0.29166,-0.2056 0.72499,-0.3084 1.29999,-0.3084 0.52221,0 0.9111,0.062 1.16665,0.1854 0.25555,0.1237 0.43541,0.2806 0.53958,0.4709 0.10416,0.1903 0.15625,0.5396 0.15625,1.0479 l -0.0125,1.3666 c 0,0.3889 0.0187,0.6757 0.0563,0.8604 0.0375,0.1848 0.10763,0.3827 0.21041,0.5938 l -1.15832,0 c -0.0306,-0.078 -0.0681,-0.1931 -0.1125,-0.3458 -0.0194,-0.069 -0.0333,-0.1153 -0.0417,-0.1375 -0.2,0.1944 -0.41389,0.3402 -0.64166,0.4375 -0.22778,0.097 -0.47084,0.1458 -0.72916,0.1458 -0.45556,0 -0.81458,-0.1236 -1.07708,-0.3708 -0.26249,-0.2473 -0.39374,-0.5598 -0.39374,-0.9375 0,-0.25 0.0597,-0.4729 0.17916,-0.6688 0.11944,-0.1958 0.2868,-0.3458 0.50208,-0.45 0.21527,-0.1041 0.52569,-0.1951 0.93124,-0.2729 0.54722,-0.1028 0.92638,-0.1986 1.13749,-0.2875 l 0,-0.1167 c 0,-0.2249 -0.0556,-0.3854 -0.16666,-0.4812 -0.11112,-0.096 -0.32084,-0.1437 -0.62917,-0.1437 -0.20833,0 -0.37083,0.041 -0.48749,0.1229 -0.11667,0.082 -0.21111,0.2257 -0.28333,0.4312 z m 1.56665,0.95 c -0.15,0.05 -0.3875,0.1097 -0.71249,0.1792 -0.325,0.069 -0.5375,0.1375 -0.6375,0.2041 -0.15277,0.1084 -0.22916,0.2459 -0.22916,0.4125 0,0.1639 0.0611,0.3056 0.18333,0.425 0.12222,0.1195 0.27777,0.1792 0.46666,0.1792 0.21111,0 0.4125,-0.07 0.60416,-0.2083 0.14167,-0.1056 0.23472,-0.2348 0.27917,-0.3875 0.0306,-0.1 0.0458,-0.2903 0.0458,-0.5709 z"
           style="font-weight:bold"
           id="path3284"
           inkscape:connector-curvature="0" />
        <path
           d="m 252.58976,1040.1288 0,-6.1083 1.17082,0 0,2.2 c 0.36111,-0.4111 0.78888,-0.6167 1.28332,-0.6167 0.53889,0 0.98471,0.1952 1.33749,0.5854 0.35277,0.3903 0.52916,0.9507 0.52916,1.6813 0,0.7555 -0.17986,1.3375 -0.53957,1.7458 -0.35973,0.4083 -0.79653,0.6125 -1.31041,0.6125 -0.25278,0 -0.50208,-0.063 -0.74791,-0.1896 -0.24583,-0.1264 -0.45763,-0.3132 -0.63541,-0.5604 l 0,0.65 z m 1.16249,-2.3083 c 0,0.4583 0.0722,0.7972 0.21667,1.0166 0.20277,0.3111 0.47221,0.4667 0.80832,0.4667 0.25833,0 0.47847,-0.1104 0.66041,-0.3313 0.18194,-0.2208 0.27291,-0.5687 0.27292,-1.0437 -1e-5,-0.5055 -0.0917,-0.8701 -0.275,-1.0937 -0.18334,-0.2236 -0.41806,-0.3354 -0.70416,-0.3354 -0.28056,0 -0.51389,0.109 -0.7,0.327 -0.18611,0.2181 -0.27916,0.5493 -0.27916,0.9938 z"
           style="font-weight:bold"
           id="path3286"
           inkscape:connector-curvature="0" />
        <path
           d="m 261.71467,1037.0121 -1.15415,0.2084 c -0.0389,-0.2306 -0.12709,-0.4042 -0.26458,-0.5208 -0.1375,-0.1167 -0.31597,-0.175 -0.53541,-0.175 -0.29167,0 -0.52431,0.1006 -0.69791,0.302 -0.17362,0.2014 -0.26042,0.5382 -0.26042,1.0104 0,0.525 0.0882,0.8959 0.26458,1.1125 0.17639,0.2167 0.41319,0.325 0.71041,0.325 0.22222,0 0.40416,-0.063 0.54583,-0.1896 0.14166,-0.1263 0.24166,-0.3437 0.3,-0.652 l 1.14999,0.1958 c -0.11945,0.5278 -0.34862,0.9264 -0.6875,1.1958 -0.33889,0.2695 -0.79305,0.4042 -1.36248,0.4042 -0.64722,0 -1.16319,-0.2042 -1.54791,-0.6125 -0.38471,-0.4083 -0.57707,-0.9736 -0.57707,-1.6958 0,-0.7306 0.19305,-1.2993 0.57916,-1.7063 0.3861,-0.4069 0.90832,-0.6104 1.56665,-0.6104 0.53888,0 0.96735,0.116 1.2854,0.3479 0.31805,0.232 0.54652,0.5855 0.68541,1.0604 z"
           style="font-weight:bold"
           id="path3288"
           inkscape:connector-curvature="0" />
      </g>
      <path
         sodipodi:nodetypes="ccccc"
         inkscape:connector-curvature="0"
         id="path3265"
         d="m 247,1038.2684 15.28125,0 0,-0.9375 -15.28516,0 z"
         style="fill:#000000;stroke:none" />
    </g>
    <path
       inkscape:connector-curvature="0"
       id="path3267"
       d="m 63.133315,916.54989 0,11.9375 13.999997,0 0,-11.9375 -13.999997,0 z m 13.062497,1 0,8.2812 -2.406247,-2.4374 -2.1875,2.1874 -3.9375,-3.9687 -3.53125,3.5313 0,-7.5626 12.062497,-0.031 z m -4.562497,0.9688 c -1.24063,-0.01 -1.3502,0.6982 -1.4375,1.4374 0.11221,1.1386 0.77593,1.4101 1.46875,1.5 0.70113,-0.085 1.2613,-0.4162 1.40625,-1.4374 -0.0554,-0.7401 -0.28199,-1.4252 -1.4375,-1.5 z"
       style="fill:#000000;stroke:none"
       inkscape:export-filename="C:\Users\andrei\Desktop\htmledd\css\icons.png"
       inkscape:export-xdpi="90"
       inkscape:export-ydpi="90" />
    <path
       inkscape:connector-curvature="0"
       id="path3291"
       d="m 66.008315,957.55533 0,1 10,0 0,-1 -10,0 z m 10,1.96875 -7,0.0312 0,1.96875 7,0 0,-2 z m -11.96875,0.0312 -0.0312,2 -1.96875,0 0,1 1.96875,0 0,1.9375 2.8125,-2.5625 -2.78125,-2.375 z m 4.96875,2.96875 0,2.03125 4,0 0,-2 -4,-0.0312 z m -3,3 0,1 10,0 0,-1 -10,0 z m 0,2 0,1 10,0 0,-1 -10,0 z"
       style="fill:#000000;stroke:none"
       inkscape:export-filename="C:\Users\andrei\Desktop\htmledd\css\icons.png"
       inkscape:export-xdpi="90"
       inkscape:export-ydpi="90" />
    <path
       inkscape:connector-curvature="0"
       id="path3317"
       d="m 46.594129,957.55533 0,1 10,0 0,-1 -10,0 z m 10,1.96875 -7,0.0312 0,1.96875 7,0 0,-2 z m -11.1875,0.0312 -2.78125,2.375 2.8125,2.5625 0,-1.9375 1.96875,0 0,-1 -1.96875,0 -0.0312,-2 z m 4.1875,2.96875 0,2.03125 4,0 0,-2 -4,-0.0312 z m -3,3 0,1 10,0 0,-1 -10,0 z m 0,2 0,1 10,0 0,-1 -10,0 z"
       style="fill:#000000;stroke:none"
       inkscape:export-filename="C:\Users\andrei\Desktop\htmledd\css\icons.png"
       inkscape:export-xdpi="90"
       inkscape:export-ydpi="90" />
    <path
       inkscape:connector-curvature="0"
       id="path3320"
       d="m 74.289565,938.61208 c -1.90639,-0.085 -2.69469,0.9375 -3.3125,1.9375 2.05164,-0.5497 4.3125,-0.3995 4.3125,1.7813 -0.0109,1.658 -1.49512,2.5198 -4.0625,2.0624 0.78772,0.9455 1.19257,1.5 3.03125,1.5 1.83868,0 3.65625,-1.7097 3.65625,-3.6562 0,-1.9465 -1.71861,-3.54 -3.625,-3.625 z m -8.625,0.062 c -1.90639,0.085 -3.625,1.6785 -3.625,3.625 0,1.9465 1.84882,3.6563 3.6875,3.6563 1.83868,0 2.21228,-0.5546 3,-1.5 -2.56738,0.4573 -4.05158,-0.4045 -4.0625,-2.0626 0,-2.1807 2.26086,-2.3309 4.3125,-1.7812 -0.61781,-1 -1.40611,-2.0226 -3.3125,-1.9375 z m 7.375,2.9063 -6.03125,0.031 c -0.67045,0.174 -0.87654,0.547 -0.96875,0.9688 0.11781,0.3631 0.18809,0.7174 1.03125,1 l 5.90625,0 c 0.72505,-0.1841 0.87588,-0.6031 1.03125,-1.0313 -0.0818,-0.618 -0.47309,-0.8474 -0.96875,-0.9687 z"
       style="fill:#000000;stroke:none"
       inkscape:export-filename="C:\Users\andrei\Desktop\htmledd\css\icons.png"
       inkscape:export-xdpi="90"
       inkscape:export-ydpi="90" />
    <path
       sodipodi:nodetypes="ccccccccccccccccccc"
       inkscape:connector-curvature="0"
       id="path3330"
       d="m 25.500037,946.2528 0,1.016 3.00521,0 0,-1.016 -1.19325,0 0.82705,-2.0028 3.51935,0 -0.4272,-1.0021 -2.67782,0 1.27769,-3.0884 2.69208,6.0982 -1.0274,0 0,1.0175 3.99218,0 0,-1.0175 -0.97496,0 -4.32835,-8.9704 -3.69021,8.9655 z"
       style="fill:#000000;stroke:none"
       inkscape:export-filename="C:\Users\andrei\Desktop\htmledd\css\icons.png"
       inkscape:export-xdpi="90"
       inkscape:export-ydpi="90" />
    <g
       id="g3435"
       transform="translate(24.041631,-0.21529754)"
       inkscape:export-filename="C:\Users\andrei\Desktop\htmledd\css\icons.png"
       inkscape:export-xdpi="90"
       inkscape:export-ydpi="90">
      <g
         id="g3439"
         transform="translate(-268.63761,-139.21982)">
        <path
           sodipodi:nodetypes="cczccccccccc"
           inkscape:connector-curvature="0"
           id="path3332"
           d="m 254.375,1076.3438 -6.03125,5.5 c -0.24086,1.4503 0.39368,2.3168 1.21875,3.375 0.82507,1.0582 1.76614,2.0456 3.375,1.8437 l 6.09375,-6.0937 c -1.385,-0.6326 -3.94508,-2.6776 -4.65625,-4.625 z m -1.28125,3.0937 c 0.92887,1.3596 1.85238,2.0338 2.78125,2.6563 l -1.46875,1.375 c -0.77097,-0.1075 -1.41581,-0.3091 -2.03125,-0.9688 -0.29692,-0.4447 -0.578,-0.9408 -0.625,-1.7187 z"
           style="fill:#000000;stroke:none" />
        <path
           sodipodi:nodetypes="ccccc"
           inkscape:connector-curvature="0"
           id="path3338"
           d="m 256.875,1077.8935 c 2.36814,-0.6489 4.81659,1.0326 5.1875,4.1562 -0.66944,4.4331 -2.59095,4.4153 -3.40625,4.3125 -1.58083,-1.1024 0.96853,-2.6458 1.21875,-4.3438 0.27741,-2.6811 -1.00509,-3.266 -3,-4.1249 z"
           style="fill:#000000;stroke:none" />
      </g>
    </g>
    <path
       inkscape:connector-curvature="0"
       id="path3340"
       d="m 4.3410538,977.01432 0,1 12.0000002,0 0,-1 -12.0000002,0 z m 0,2 0,1 8.9687502,0 0,-1 -8.9687502,0 z m 0,2.0312 0,0.9688 12.0000002,0 0,-0.9688 -12.0000002,0 z m 0,2 0,1 8.9687502,0 0,-1 -8.9687502,0 z m 0,2 0,1 12.0000002,0 0,-1 -12.0000002,0 z m 0,2 0,1 8.9687502,0 0,-1 -8.9687502,0 z"
       style="fill:#000000;stroke:none"
       inkscape:export-filename="C:\Users\andrei\Desktop\htmledd\css\icons.png"
       inkscape:export-xdpi="90"
       inkscape:export-ydpi="90" />
    <path
       inkscape:connector-curvature="0"
       id="path3352"
       d="m 43.939034,977.02992 0,0.9688 12,0 0,-0.9688 -12,0 z m 1.5,2 0,1 9,0 0,-1 -9,0 z m -1.5,2 0,1 12,0 0,-1 -12,0 z m 1.5,2 0,1 9,0 0,-1 -9,0 z m -1.5,2 0,1 12,0 0,-1 -12,0 z m 1.5,2.0312 0,0.9688 9,0 0,-0.9688 -9,0 z"
       style="fill:#000000;stroke:none"
       inkscape:export-filename="C:\Users\andrei\Desktop\htmledd\css\icons.png"
       inkscape:export-xdpi="90"
       inkscape:export-ydpi="90" />
    <path
       inkscape:connector-curvature="0"
       id="path3365"
       d="m 24.296294,977.01432 0,1 12,0 0,-1 -12,0 z m 3.03125,2 0,1 8.96875,0 0,-1 -8.96875,0 z m -3.03125,2 0,1 12,0 0,-1 -12,0 z m 3.03125,2 0,1 8.96875,0 0,-1 -8.96875,0 z m -3.03125,2.0312 0,0.9688 12,0 0,-0.9688 -12,0 z m 3.03125,2 0,1 8.96875,0 0,-1 -8.96875,0 z"
       style="fill:#000000;stroke:none"
       inkscape:export-filename="C:\Users\andrei\Desktop\htmledd\css\icons.png"
       inkscape:export-xdpi="90"
       inkscape:export-ydpi="90" />
    <path
       inkscape:connector-curvature="0"
       id="path3377"
       d="m 64.44513,977.01432 0,1 12,0 0,-1 -12,0 z m 0,2 0,1 12,0 0,-1 -12,0 z m 0,2.0312 0,0.9688 12,0 0,-0.9688 -12,0 z m 0,2 0,1 12,0 0,-1 -12,0 z m 0,2 0,1 12,0 0,-1 -12,0 z m 0,2 0,1 12,0 0,-1 -12,0 z"
       style="fill:#000000;stroke:none"
       inkscape:export-filename="C:\Users\andrei\Desktop\htmledd\css\icons.png"
       inkscape:export-xdpi="90"
       inkscape:export-ydpi="90" />
    <g
       id="g3414"
       transform="translate(-272.71785,-103.31632)"
       inkscape:export-filename="C:\Users\andrei\Desktop\htmledd\css\icons.png"
       inkscape:export-xdpi="90"
       inkscape:export-ydpi="90">
      <path
         sodipodi:nodetypes="ccccccccccccc"
         inkscape:connector-curvature="0"
         id="path3393"
         d="m 297.50413,1121.8907 3.48029,3.4803 -3.45819,3.4582 1.02751,1.0275 3.49134,-3.4914 3.49134,3.4914 1.03856,-1.0386 -3.54658,-3.5466 3.46924,-3.4692 -1.03856,-1.0386 -3.49134,3.4914 -3.414,-3.414 c -0.34994,0.3498 -0.69975,0.6997 -1.04961,1.0496 z"
         style="fill:#000000;stroke:none" />
      <text
         sodipodi:linespacing="125%"
         id="text3395"
         y="1131.3925"
         x="307.87903"
         style="font-size:5.95524168px;font-style:normal;font-weight:normal;line-height:125%;letter-spacing:0px;word-spacing:0px;fill:#000000;fill-opacity:1;stroke:none;font-family:Sans"
         xml:space="preserve"><tspan
           style="font-style:normal;font-variant:normal;font-weight:bold;font-stretch:normal;font-family:Arial;-inkscape-font-specification:Arial Bold"
           y="1131.3925"
           x="307.87903"
           id="tspan3397"
           sodipodi:role="line">2</tspan></text>
    </g>
    <g
       id="g3419"
       transform="translate(-252.32271,-125.34765)"
       inkscape:export-filename="C:\Users\andrei\Desktop\htmledd\css\icons.png"
       inkscape:export-xdpi="90"
       inkscape:export-ydpi="90">
      <path
         style="fill:#000000;stroke:none"
         d="m 297.62913,1144.1407 3.48029,3.4803 -3.45819,3.4582 1.02751,1.0275 3.49134,-3.4914 3.49134,3.4914 1.03856,-1.0386 -3.54658,-3.5466 3.46924,-3.4692 -1.03856,-1.0386 -3.49134,3.4914 -3.414,-3.414 c -0.34994,0.3498 -0.69975,0.6997 -1.04961,1.0496 z"
         id="path3399"
         inkscape:connector-curvature="0"
         sodipodi:nodetypes="ccccccccccccc" />
      <text
         xml:space="preserve"
         style="font-size:5.95524168px;font-style:normal;font-weight:normal;line-height:125%;letter-spacing:0px;word-spacing:0px;fill:#000000;fill-opacity:1;stroke:none;font-family:Sans"
         x="307.87903"
         y="1145.3925"
         id="text3401"
         sodipodi:linespacing="125%"><tspan
           sodipodi:role="line"
           id="tspan3403"
           x="307.87903"
           y="1145.3925"
           style="font-style:normal;font-variant:normal;font-weight:bold;font-stretch:normal;font-family:Arial;-inkscape-font-specification:Arial Bold">2</tspan></text>
    </g>
    <path
       style="fill:#000000;stroke:none"
       d="m 43.399928,916.51864 0,12 13.999997,0 0,-12 z m 4.6875,2.9062 5.374997,3.3437 -5.374997,3.3438 z"
       id="path3405"
       inkscape:connector-curvature="0"
       sodipodi:nodetypes="ccccccccc"
       inkscape:export-filename="C:\Users\andrei\Desktop\htmledd\css\icons.png"
       inkscape:export-xdpi="90"
       inkscape:export-ydpi="90" />
    <path
       style="fill:#000000;fill-opacity:1;stroke:none"
       d="m 70.125,1017.4375 c -2.24551,0 -4.0625,1.817 -4.0625,4.0625 0,2.2455 1.81699,4.0938 4.0625,4.0938 2.24551,0 4.0625,-1.8483 4.0625,-4.0938 0,-2.2455 -1.81699,-4.0625 -4.0625,-4.0625 z m 0,1.375 c 1.48887,0 2.6875,1.1986 2.6875,2.6875 0,0.5583 -0.17954,1.0657 -0.46875,1.5 l -3.71875,-3.7188 c 0.43429,-0.2892 0.94167,-0.4687 1.5,-0.4687 z m -2.125,1.0625 3.75,3.75 c -0.45372,0.3564 -1.00507,0.5938 -1.625,0.5938 -1.48887,0 -2.71875,-1.2299 -2.71875,-2.7188 0,-0.6199 0.23738,-1.1713 0.59375,-1.625 z"
       id="path3460"
       inkscape:connector-curvature="0"
       inkscape:export-filename="C:\Users\andrei\Desktop\htmledd\css\icons.png"
       inkscape:export-xdpi="90"
       inkscape:export-ydpi="90" />
  </g>
</svg>
